<svg xmlns="http://www.w3.org/2000/svg" viewBox="0 0 500 500"><g id="freepik--background-simple--inject-5"><path d="M69.08,396.12c36.88,23.3,102.79,31.44,130.37,32.68,75,3.36,169,7,233.6-38.85,38-27,4-106-1-134s47-23,20-88-118-102-186-101-70,47-118,67-67-5-102,38,18,106,26,126c4.41,11-14.61,23.29-19.65,31.3C33.39,359.44,45.1,381,69.08,396.12Z" style="fill:#4CAF50"></path><path d="M69.08,396.12c36.88,23.3,102.79,31.44,130.37,32.68,75,3.36,169,7,233.6-38.85,38-27,4-106-1-134s47-23,20-88-118-102-186-101-70,47-118,67-67-5-102,38,18,106,26,126c4.41,11-14.61,23.29-19.65,31.3C33.39,359.44,45.1,381,69.08,396.12Z" style="fill:#fff;opacity:0.8"></path></g><g id="freepik--Clouds--inject-5"><path d="M393.17,136c-4.52-2.47-6.58-.41-8.22-2.47s4.52-7.4-7.81-12.74c0,0-.82-11.52-17.68-11.93s-12.34,11.52-16.86,14.39-5.76-1.64-10.28,1.24-2.47,8.63-6.17,9.45-8.63-3.7-13.16-.82-4.52,5.35-6.58,5.35-6.16-1.65-8.63,0-5.35,3.7-5.35,3.7h104S397.7,138.48,393.17,136Z" style="fill:#fff;opacity:0.8"></path><path d="M283.79,84c-1.66-.91-2.42-.15-3-.91s1.66-2.72-2.88-4.69c0,0-.3-4.24-6.5-4.39s-4.54,4.24-6.21,5.3-2.11-.61-3.78.45-.91,3.18-2.27,3.48-3.18-1.36-4.84-.3-1.66,2-2.42,2-2.27-.61-3.18,0-2,1.36-2,1.36H285A2,2,0,0,0,283.79,84Z" style="fill:#fff;opacity:0.8"></path></g><g id="freepik--Floor--inject-5"><path d="M44,366c3,12.12,12.29,22.06,25.13,30.17,36.88,23.3,102.79,31.44,130.37,32.68,75,3.36,169,7,233.6-38.85,8.29-5.89,13.15-14.24,15.63-24Z" style="fill:#4CAF50"></path><path d="M44,366c3,12.12,12.29,22.06,25.13,30.17,36.88,23.3,102.79,31.44,130.37,32.68,75,3.36,169,7,233.6-38.85,8.29-5.89,13.15-14.24,15.63-24Z" style="fill:#fff;opacity:0.6000000000000001"></path></g><g id="freepik--Trees--inject-5"><path d="M187.89,232s42.24,4.18,63.65,30.37c0,0,22.62-30.34,63.24-29.71a82.11,82.11,0,1,0-126.9-.59Z" style="fill:#4CAF50"></path><path d="M187.89,232s42.24,4.18,63.65,30.37c0,0,22.62-30.34,63.24-29.71a82.11,82.11,0,1,0-126.9-.59Z" style="fill:#fff;opacity:0.6000000000000001"></path><polygon points="250.14 103.96 248.72 364.95 255.84 364.95 250.14 103.96" style="fill:#263238"></polygon><path d="M252.28,254.4s14.26-25.67,39.93-33.51c0,0-27.1,6.41-40.64,28.52Z" style="fill:#263238"></path><path d="M252.28,181.67s14.26-25.66,39.93-33.5c0,0-27.1,6.41-40.64,28.51Z" style="fill:#263238"></path><path d="M252.28,218s14.26-25.67,39.93-33.51c0,0-27.1,6.41-40.64,28.52Z" style="fill:#263238"></path><path d="M250.17,200.21s-13.76-25.66-38.53-33.51c0,0,26.14,6.42,39.21,28.52Z" style="fill:#263238"></path><path d="M250.17,235.86s-13.76-25.67-38.53-33.51c0,0,26.14,6.42,39.21,28.52Z" style="fill:#263238"></path><path d="M75.82,249.25s33.54,3.32,50.54,24.11c0,0,18-24.09,50.22-23.59a65.19,65.19,0,1,0-100.77-.46Z" style="fill:#4CAF50"></path><path d="M75.82,249.25s33.54,3.32,50.54,24.11c0,0,18-24.09,50.22-23.59a65.19,65.19,0,1,0-100.77-.46Z" style="fill:#fff;opacity:0.5"></path><polygon points="125.25 147.57 124.12 364.95 129.78 364.95 125.25 147.57" style="fill:#263238"></polygon><path d="M127,267s11.32-20.38,31.7-26.6c0,0-21.51,5.09-32.27,22.64Z" style="fill:#263238"></path><path d="M127,209.28s11.32-20.38,31.7-26.61c0,0-21.51,5.09-32.27,22.64Z" style="fill:#263238"></path><path d="M127,238.15s11.32-20.38,31.7-26.61c0,0-21.51,5.1-32.27,22.65Z" style="fill:#263238"></path><path d="M125.27,224s-10.93-20.38-30.59-26.61c0,0,20.76,5.09,31.14,22.64Z" style="fill:#263238"></path><path d="M125.27,252.3s-10.93-20.38-30.59-26.6c0,0,20.76,5.09,31.14,22.64Z" style="fill:#263238"></path><path d="M321.29,249.25s33.55,3.32,50.55,24.11c0,0,18-24.09,50.22-23.59a65.2,65.2,0,1,0-100.78-.46Z" style="fill:#4CAF50"></path><path d="M321.29,249.25s33.55,3.32,50.55,24.11c0,0,18-24.09,50.22-23.59a65.2,65.2,0,1,0-100.78-.46Z" style="fill:#fff;opacity:0.5"></path><polygon points="370.73 147.57 369.59 364.95 375.25 364.95 370.73 147.57" style="fill:#263238"></polygon><path d="M372.42,267s11.33-20.38,31.71-26.6c0,0-21.52,5.09-32.27,22.64Z" style="fill:#263238"></path><path d="M372.42,209.28s11.33-20.38,31.71-26.61c0,0-21.52,5.09-32.27,22.64Z" style="fill:#263238"></path><path d="M372.42,238.15s11.33-20.38,31.71-26.61c0,0-21.52,5.1-32.27,22.65Z" style="fill:#263238"></path><path d="M370.75,224s-10.93-20.38-30.6-26.61c0,0,20.76,5.09,31.14,22.64Z" style="fill:#263238"></path><path d="M370.75,252.3s-10.93-20.38-30.6-26.6c0,0,20.76,5.09,31.14,22.64Z" style="fill:#263238"></path><path d="M439.83,372.82,407.9,369l17.88-3.19-30.06,2.77c-1.73-2.2,30.06-2.77,30.06-2.77H401.52l-1.92-2.56c-1.91-2.55-8.3,2.56-11.49,2.56s0-2.56,3.83-8.94-7.82,1.3-7.82,1.3a5.15,5.15,0,0,0-1.76-5.13c-2.55-1.92-6.38,8.3-6.38,8.3s-2.8-3.92-6.39-5.11S367,362.6,367,362.6s-10.22-5.1-14.69-7,1.91,5.11,6.39,7.66-3.2,1.92-7,1.92H319.78c-3.19,0-33.2.64-33.2.64l-.64-3.83c-.64-3.84-9.58.63-12.13-.64s0-3.2-3.84-8.3-8.3,7-14,8.3h-9.58a10.83,10.83,0,0,0-3.2-7c-3.19-3.19-2.55,5.11-5.1,5.11s-1.92-1.28-6.39-3.19-1.28,4.47-3.19,4.47-7.67-3.83-12.14-3.19,5.75,5.74,5.75,5.74-5.11.64-8.94,1.28a85.76,85.76,0,0,1-17.24,1.92c-8.3,0-10.86.63-24.9-1.28s-14.69-.64-14.69-.64a4.79,4.79,0,0,0-3.83-1.92c-2.56,0-4.47,1.92-7,.64s0,0-1.91-1.91-5.11,3.83-8.3,2.55,3.83-9.58,3.19-11.49-5.11.64-7.66,3.83-3.2,0-6.39-3.83-3.83,5.74-3.83,5.74-1.92-6.38-6.39-7,0,5.75-1.91,12.77-7.67-3.83-15.33-3.83,7,8.94,7,8.94l-38.32,1.92L79,372.18l-18.52,5.11,48.53,4.47-21.71-8.3h43.43l-16,2.55,35.76.64-17.24,5.11,54.28-6.38-25.54-1.28L236.13,369l-38.31,6.39,145.59-3.84-39.59,2.56s10.95.24,26.23.51l-34.53,2.68,61.3,3.19L347.24,376l54.39-.58,8.19,1.86L389.39,383l47.25-1.92-15.33-3.83Z" style="fill:#4CAF50"></path></g><g id="freepik--character-1--inject-5"><path d="M269.36,399.32c0,1.9-23.39,3.44-52.23,3.44s-52.23-1.54-52.23-3.44,23.39-3.43,52.23-3.43S269.36,397.43,269.36,399.32Z" style="fill:#263238"></path><path d="M269.39,355.1a74.07,74.07,0,0,1,1,11c-.16,3.81-1.64,10.42-.27,11.67s2.18-.62,4.7-3.85,6.45-11.17,8-14,3.81-5.32,2.46-7.05-4.9-2.59-6.8-2.68l-6.43-.28Z" style="fill:#263238"></path><path d="M271,378.69a1.7,1.7,0,0,1-1.16-.52c-1.07-1-.83-3.69-.3-8.05.18-1.47.35-2.87.4-4a73.77,73.77,0,0,0-1-10.93l0-.17,2.89-5.54,6.75.29c2.11.09,5.73,1,7.17,2.87,1.28,1.63,0,3.67-1.35,5.84-.36.57-.72,1.16-1.06,1.76s-.87,1.62-1.46,2.74c-1.84,3.5-4.63,8.8-6.58,11.29-.51.65-1,1.24-1.33,1.77-1.18,1.6-1.9,2.57-2.81,2.66Zm-1-23.51a71,71,0,0,1,1,11c0,1.19-.22,2.6-.4,4.09-.34,2.74-.79,6.5,0,7.19.31.28.47.27.52.26.47,0,1.19-1,2.1-2.26.39-.53.83-1.13,1.35-1.79,1.89-2.42,4.66-7.67,6.49-11.14.59-1.12,1.09-2.08,1.47-2.75s.72-1.23,1.08-1.81c1.21-1.94,2.26-3.61,1.41-4.69-1.22-1.56-4.56-2.41-6.43-2.49l-6.11-.26Z" style="fill:#263238"></path><path d="M280,360.1a109.4,109.4,0,0,1-10.17,17.14,1.51,1.51,0,0,0,.33.56c1.38,1.25,2.18-.62,4.7-3.85s6.45-11.17,8-14,3.81-5.32,2.46-7.05a5.62,5.62,0,0,0-1.88-1.39C282.72,353.53,281.65,356.33,280,360.1Z" style="fill:#fff"></path><path d="M271,378.69a1.7,1.7,0,0,1-1.16-.52,1.84,1.84,0,0,1-.47-.76l-.09-.24.15-.22a108.85,108.85,0,0,0,10.12-17.05h0c1.43-3.2,2.58-6.07,3.43-8.52l.19-.53.51.25a5.91,5.91,0,0,1,2,1.53c1.28,1.63,0,3.67-1.35,5.84-.36.57-.72,1.16-1.06,1.76s-.87,1.62-1.46,2.74c-1.84,3.5-4.63,8.8-6.58,11.29-.51.65-1,1.24-1.33,1.77-1.18,1.6-1.9,2.57-2.81,2.66Zm-.59-1.39a.58.58,0,0,0,.1.13c.31.28.47.27.52.26.47,0,1.19-1,2.1-2.26.39-.53.83-1.13,1.35-1.79,1.89-2.42,4.66-7.67,6.49-11.14.59-1.12,1.09-2.08,1.47-2.75s.72-1.23,1.08-1.81c1.21-1.94,2.26-3.61,1.41-4.69a4.27,4.27,0,0,0-1.2-1c-.84,2.35-1.93,5.05-3.27,8h0A108.8,108.8,0,0,1,270.37,377.3Z" style="fill:#263238"></path><path d="M174.32,376.25s2.61,7.68,2.78,10.1.34,4.85-2.44,4.63-6.43-1-7.35-.7a18.06,18.06,0,0,1-7.46-.17,45,45,0,0,1-8.39-2.64c-1.17-.67-1.57-3,.27-3.54s8.85-1.93,10.86-2.73S168.1,377,168.1,377Z" style="fill:#263238"></path><path d="M175,391.49h-.38c-1.08-.09-2.27-.25-3.41-.4a18.41,18.41,0,0,0-3.77-.32,18.18,18.18,0,0,1-7.71-.17,44.29,44.29,0,0,1-8.52-2.69,2.76,2.76,0,0,1-1.23-2.63,2.13,2.13,0,0,1,1.61-1.82c.63-.17,1.83-.44,3.21-.76,2.66-.61,6.3-1.44,7.6-2,1.89-.75,5.31-4.09,5.35-4.12l.12-.12,6.8-.79.13.39c.1.31,2.62,7.77,2.8,10.23.12,1.74.25,3.54-.73,4.51A2.57,2.57,0,0,1,175,391.49Zm-7.13-1.76a33.38,33.38,0,0,1,3.47.35c1.13.16,2.31.31,3.36.4a1.8,1.8,0,0,0,1.46-.36c.66-.65.55-2.22.44-3.73-.14-2-2.1-8-2.62-9.6l-5.66.66c-.65.63-3.67,3.46-5.55,4.21a76.37,76.37,0,0,1-7.75,2c-1.37.31-2.56.58-3.16.75a1.1,1.1,0,0,0-.88,1,1.75,1.75,0,0,0,.73,1.63,44.83,44.83,0,0,0,8.25,2.59,17.53,17.53,0,0,0,7.21.18A2.7,2.7,0,0,1,167.87,389.73Z" style="fill:#263238"></path><path d="M177.15,387.09c-1.93.23-5.39.64-9.2,1-5.77.59-11.87-.94-13.92-2.11-1.21-.69-2.23-1.33-3-1.71a2.08,2.08,0,0,0,.44,3.16,45,45,0,0,0,8.39,2.64,18.06,18.06,0,0,0,7.46.17c.92-.25,4.57.47,7.35.7C177.16,391.18,177.27,389.24,177.15,387.09Z" style="fill:#fff"></path><path d="M175,391.49h-.38c-1.08-.09-2.27-.25-3.41-.4a19.18,19.18,0,0,0-3.77-.32,18.18,18.18,0,0,1-7.71-.17,44.29,44.29,0,0,1-8.52-2.69,2.7,2.7,0,0,1-1.23-2,2.22,2.22,0,0,1,.71-1.93l.25-.22.3.15c.52.25,1.12.61,1.82,1l1.22.7c2.09,1.2,8.15,2.61,13.62,2.05,3.91-.41,7.44-.82,9.19-1l.53-.06,0,.53c.08,1.37.09,2.91-.79,3.78A2.58,2.58,0,0,1,175,391.49Zm-7.13-1.76a33.38,33.38,0,0,1,3.47.35c1.13.16,2.31.31,3.36.4a1.76,1.76,0,0,0,1.46-.36,3.48,3.48,0,0,0,.51-2.47c-1.88.23-5.11.61-8.67,1-5.74.6-11.95-.88-14.22-2.17l-1.23-.71c-.53-.31-1-.59-1.41-.81a1.35,1.35,0,0,0-.16.83,1.66,1.66,0,0,0,.73,1.27,44.83,44.83,0,0,0,8.25,2.59,17.53,17.53,0,0,0,7.21.18A2.7,2.7,0,0,1,167.87,389.73Z" style="fill:#263238"></path><path d="M202.67,288.55a145.68,145.68,0,0,1-12.15,10.7c-7.53,6-21.75,13.8-21.75,13.8s9.3,12.55,9.6,20.12-5.34,39.34-4.32,43.23c0,0-3.13,3-5.15,1s-7.07-46-10.3-52.3-5.5-15.75-4.21-18.68c2.47-5.59,18.47-22.16,25.92-26.88a122.36,122.36,0,0,0,12.11-8.64" style="fill:#263238"></path><path d="M170.59,378.58a2.73,2.73,0,0,1-2.05-.89c-1-1-2.28-8.77-4.44-22.37-2-12.54-4.26-26.76-5.95-30-3.08-6-5.65-15.86-4.22-19.11,2.49-5.62,18.59-22.34,26.11-27.1a122.21,122.21,0,0,0,12.06-8.6l.65.77a128,128,0,0,1-12.17,8.67c-7.43,4.7-23.3,21.15-25.73,26.67-1.19,2.68.93,11.89,4.19,18.24,1.77,3.43,3.94,17.11,6.05,30.34,1.56,9.82,3.33,20.95,4.17,21.84.68.7,1.58.77,2.76.21a7.28,7.28,0,0,0,1.49-1c-.39-2.62.81-11.7,2.09-21.29,1.19-8.93,2.41-18.16,2.27-21.74-.29-7.33-9.41-19.71-9.5-19.84l-.34-.46.5-.27c.14-.08,14.26-7.87,21.68-13.76a149,149,0,0,0,12.1-10.65l.71.69a144.69,144.69,0,0,1-12.19,10.74c-6.69,5.31-18.74,12.13-21.32,13.58,1.7,2.37,9.08,13,9.36,19.93.15,3.66-1.09,12.94-2.28,21.92-1.26,9.47-2.56,19.27-2.05,21.2l.07.29-.21.2a8.24,8.24,0,0,1-2,1.35A4.26,4.26,0,0,1,170.59,378.58Z" style="fill:#263238"></path><path d="M185.71,216.78s5.37-5.4,11.3-6,15.94,1.47,18.85,1.57,9.26.83,9.59,1.8A94.13,94.13,0,0,1,229.6,234c1,10.45.21,29.66.21,29.66l-4.52-.64a64.75,64.75,0,0,0-4.93-20.16,98.87,98.87,0,0,1-6.08-18.07s-13.46,1.65-19.82.91" style="fill:#4CAF50"></path><path d="M230.29,264.22l-5.48-.77,0-.41a65.14,65.14,0,0,0-4.88-20,101.56,101.56,0,0,1-6-17.73c-2.43.28-13.72,1.53-19.48.86l.11-1c6.22.72,19.56-.91,19.7-.92l.45-.06.1.45a99.26,99.26,0,0,0,6,18,66.06,66.06,0,0,1,4.94,19.92l3.58.5c.11-3.22.65-19.73-.24-29A93.45,93.45,0,0,0,225,214.35c-.49-.58-5.66-1.35-9.14-1.47-1,0-2.58-.25-4.64-.53-4.29-.59-10.17-1.4-14.15-1-5.67.53-10.93,5.76-11,5.81l-.71-.7c.22-.23,5.57-5.54,11.6-6.1,4.09-.39,10,.43,14.38,1,1.95.27,3.63.5,4.54.54.09,0,9.47.42,10,2.14a94.25,94.25,0,0,1,4.18,19.91c1,10.36.22,29.53.21,29.73Z" style="fill:#263238"></path><path d="M229.81,263.65s.79-19.21-.21-29.66a94.13,94.13,0,0,0-4.15-19.8c-.32-.94-6.33-1.66-9.34-1.79a40.49,40.49,0,0,1-1.93,12.39h.1a98.87,98.87,0,0,0,6.08,18.07A64.75,64.75,0,0,1,225.29,263s-4,3.5-5,4.28,2,4.52,2,4.52,1,4.39,3.38,4.9a4.19,4.19,0,0,0,3.87-1.3,15.8,15.8,0,0,0,1.93-4.53C232.41,267.51,229.81,263.65,229.81,263.65Z" style="fill:#fff"></path><path d="M226.42,277.3a4.49,4.49,0,0,1-.94-.1c-2.41-.53-3.54-4.44-3.73-5.16-.52-.67-2.36-3.12-2.19-4.42a1,1,0,0,1,.4-.73c.88-.66,4-3.39,4.81-4.09a64.8,64.8,0,0,0-4.86-19.74,101.83,101.83,0,0,1-6-17.74l-.46.06.28-.76a40.18,40.18,0,0,0,1.9-12.23v-.52l.51,0c.1,0,9.22.44,9.79,2.13a94.25,94.25,0,0,1,4.18,19.91c.94,9.86.29,27.7.22,29.57.47.75,2.52,4.29,1.54,7.51a15.65,15.65,0,0,1-2,4.69A4.83,4.83,0,0,1,226.42,277.3Zm-11.66-52.65v0a99.26,99.26,0,0,0,6,18,66.19,66.19,0,0,1,5,20.33v.25l-.18.16c-.17.14-4,3.52-5.06,4.3-.21.3.65,2.07,2,3.81l.1.19c.27,1.14,1.34,4.17,3,4.53a3.68,3.68,0,0,0,3.39-1.14h0a15.75,15.75,0,0,0,1.83-4.35c.94-3.1-1.49-6.77-1.51-6.81l-.09-.13v-.16c0-.2.78-19.3-.21-29.59A93.45,93.45,0,0,0,225,214.35c-.42-.5-4.63-1.22-8.38-1.43A41,41,0,0,1,214.76,224.65Z" style="fill:#263238"></path><path d="M187.65,193.1s-.84,5.07,0,8.17,5.36,8.46,4.79,11-8.45,7.05-10.71,5.92-2.82-14.65-2.82-14.65S184,194.51,187.65,193.1Z" style="fill:#fff"></path><path d="M182.65,218.86a2.55,2.55,0,0,1-1.14-.23c-2.4-1.2-3-12.78-3.09-15.08v-.15l.07-.12c.21-.37,5.2-9.19,9-10.65l.82-.32-.14.87s-.82,5,0,8a22.16,22.16,0,0,0,2.21,4.44c1.52,2.62,3,5.1,2.58,6.79s-3.41,4-6.2,5.31A10.89,10.89,0,0,1,182.65,218.86Zm-3.23-15.21c.24,5.49,1.18,13.41,2.54,14.09.68.34,2.39,0,4.34-1,2.86-1.36,5.39-3.43,5.66-4.61s-1.18-3.85-2.48-6.08a22.52,22.52,0,0,1-2.31-4.68A22,22,0,0,1,187,194C183.89,196,180,202.66,179.42,203.65Z" style="fill:#263238"></path><path d="M190.44,206.17s-8.28,4.61-13.08,9.12S172,233.9,173.7,241.23s5.75,16.82,7.89,21.42c3.62,7.76.72,17,4,24.76,6.12,14.45,26.38,6.55,28.52-6.47,1.23-7.52-4.41-14.11-5.19-21.39-.85-7.89-2.28-35.54-5.1-43.16S195,206.35,190.44,206.17Z" style="fill:#263238"></path><path d="M196.85,295.65c-5.3,0-9.5-2.86-11.7-8-1.65-3.88-1.78-8.13-1.92-12.24s-.28-8.61-2.09-12.5c-1-2.1-6-13-7.93-21.52-1.76-7.65-1.16-21.74,3.81-26.41,4.78-4.5,13.09-9.15,13.18-9.2l.12-.07h.14c2.37.09,10.36,1.12,13.85,10.55,2.15,5.82,3.5,23.12,4.39,34.57.28,3.64.53,6.79.73,8.71a34.3,34.3,0,0,0,2.61,8.69c1.63,4.08,3.32,8.29,2.58,12.83-1.32,8.05-9.13,13.7-15.91,14.52A17,17,0,0,1,196.85,295.65Zm-6.29-89c-1,.6-8.48,4.87-12.85,9-4.64,4.36-5.19,18.21-3.52,25.45,1.94,8.43,6.89,19.25,7.86,21.33,1.9,4.07,2,8.55,2.18,12.89.13,4,.27,8.17,1.84,11.88,2.26,5.34,6.82,8,12.52,7.33,6.42-.77,13.8-6.1,15-13.68.7-4.26-.86-8.17-2.51-12.3a34.36,34.36,0,0,1-2.68-9c-.21-1.93-.45-5.08-.74-8.74-.88-11.39-2.22-28.6-4.33-34.29C200.16,207.9,192.93,206.8,190.56,206.67Z" style="fill:#263238"></path><path d="M177.36,215.29c4.8-4.51,13.08-9.12,13.08-9.12,4.55.18,10.58,2.61,13.4,10.22s4.25,35.27,5.1,43.16a32.79,32.79,0,0,0,2.57,8.64c-5.56,1.79-17,4.9-27.89,4.31a26,26,0,0,0-2-9.85c-2.14-4.6-6.2-14.1-7.89-21.42S172.57,219.8,177.36,215.29Z" style="fill:#4CAF50"></path><path d="M186.4,273.08c-.94,0-1.87,0-2.81-.08l-.45,0,0-.45a25.61,25.61,0,0,0-2-9.67c-1-2.1-6-13-7.93-21.52-1.76-7.65-1.16-21.74,3.81-26.41h0c4.78-4.5,13.09-9.15,13.18-9.2l.12-.07h.14c2.37.09,10.36,1.12,13.85,10.55,2.15,5.82,3.5,23.12,4.39,34.57.28,3.64.53,6.79.73,8.71A33.35,33.35,0,0,0,212,268l.2.5-.51.17C206.35,270.38,196.4,273.08,186.4,273.08ZM184.09,272c10.3.47,21-2.32,26.75-4.15a32.21,32.21,0,0,1-2.4-8.28c-.21-1.93-.45-5.08-.74-8.74-.88-11.39-2.22-28.6-4.33-34.29-3.21-8.67-10.44-9.77-12.81-9.9-1,.6-8.48,4.87-12.85,9h0c-4.64,4.36-5.19,18.21-3.52,25.45,1.94,8.43,6.89,19.25,7.86,21.33A25.82,25.82,0,0,1,184.09,272Z" style="fill:#263238"></path><path d="M200.73,266.74c-9.38,0-18.93-7.48-19.33-7.8a.5.5,0,0,1-.08-.7.49.49,0,0,1,.7-.08c.1.07,9.69,7.58,18.71,7.58a.5.5,0,0,1,.5.5A.51.51,0,0,1,200.73,266.74Z" style="fill:#263238"></path><path d="M199.44,269.06a23,23,0,0,1-9.46-2,.51.51,0,0,1-.22-.67.5.5,0,0,1,.67-.23,22.69,22.69,0,0,0,12.64,1.57.51.51,0,0,1,.58.42.5.5,0,0,1-.42.57A23.12,23.12,0,0,1,199.44,269.06Z" style="fill:#263238"></path><path d="M196.08,214.28s3.53,7.05,2.12,13.05-6.7,15.16-7.76,18-3.88,8.81-4.94,8.81a97.26,97.26,0,0,1-20.8-2.46c-10.58-2.47-30-10.58-30-10.58l1.76-3.53s11.64,3.17,22.57,2.12a101.69,101.69,0,0,1,19.74,0s2.82-13.76,5.64-19.75" style="fill:#4CAF50"></path><path d="M185.5,254.62a97,97,0,0,1-20.92-2.48c-10.49-2.45-29.85-10.52-30.05-10.6l-.49-.21,2.19-4.37.39.11c.12,0,11.68,3.14,22.39,2.1a105.59,105.59,0,0,1,19.4,0c.51-2.45,3-14,5.58-19.41l.91.42c-2.77,5.88-5.58,19.5-5.61,19.64l-.09.45-.46-.06a102.4,102.4,0,0,0-19.64,0c-9.76,1-20.2-1.49-22.34-2l-1.35,2.68c3.1,1.28,19.92,8.14,29.4,10.35a96.24,96.24,0,0,0,20.69,2.45c.73-.27,3.2-5.09,4.47-8.49.35-.92,1.1-2.44,2.06-4.37,2-4,4.73-9.52,5.68-13.55,1.35-5.75-2-12.64-2.08-12.71l.9-.44c.15.29,3.59,7.28,2.15,13.38-1,4.14-3.73,9.7-5.75,13.76-.91,1.83-1.69,3.41-2,4.28C190.87,245.58,187.33,254.62,185.5,254.62Z" style="fill:#263238"></path><path d="M222.21,271.81l6.08.67s1.63-.82-3.27-4.09" style="fill:#fff"></path><path d="M228.38,273l-6.22-.69.11-1,5.78.64c-.08-.37-.53-1.29-3.31-3.14l.55-.83c2.59,1.72,3.82,3.06,3.75,4.08a1,1,0,0,1-.53.87Z" style="fill:#263238"></path><path d="M212,281.63a144.64,144.64,0,0,1,3.17,15.87c1.41,9.52,1.06,25.74,1.06,25.74s15.51-1.77,22.21,1.76,31.39,24.33,35.27,25.39c0,0,1,4.23-1.77,4.93s-43.37-16.92-50.42-17.27-16.89-3.22-19-7.41c-1.46-2.84-9.17-25.39-9.52-34.2a121.59,121.59,0,0,0-1.41-14.81" style="fill:#263238"></path><path d="M271.72,355.84c-2,0-9.17-2.74-21.29-7.39-11.86-4.56-25.3-9.72-29-9.91-6.42-.32-17.05-3-19.46-7.67-1.59-3.1-9.22-25.64-9.57-34.41A120.67,120.67,0,0,0,191,281.71l1-.17a124,124,0,0,1,1.42,14.88c.34,8.66,7.89,30.93,9.46,34,2,3.81,11.21,6.77,18.62,7.14,3.85.19,16.79,5.16,29.3,10,9.27,3.57,19.79,7.63,21,7.33,2-.49,1.61-3.21,1.45-4.07-2.46-1-9.71-6.57-17.37-12.47-7.14-5.5-14.52-11.19-17.69-12.86-6.49-3.41-21.77-1.72-21.92-1.71l-.57.07v-.57c0-.17.34-16.29-1.05-25.66a148.76,148.76,0,0,0-3.16-15.81l1-.27a146.44,146.44,0,0,1,3.19,15.93c1.25,8.45,1.11,22.3,1.07,25.26,2.9-.29,15.83-1.34,21.94,1.88,3.25,1.71,10.66,7.42,17.83,12.95,7.57,5.83,15.4,11.87,17.33,12.39l.28.08.07.29c.41,1.63.49,4.88-2.13,5.54A1.12,1.12,0,0,1,271.72,355.84Z" style="fill:#263238"></path><path d="M206.79,313.66a.5.5,0,0,1-.49-.4l-6-29.54a.5.5,0,0,1,.39-.59.51.51,0,0,1,.59.39l6,29.54a.49.49,0,0,1-.39.59Z" style="fill:#fff"></path><path d="M200.17,281.25a.51.51,0,0,1-.49-.4l-1.06-5.21a.5.5,0,0,1,1-.2l1.06,5.21a.5.5,0,0,1-.39.59Z" style="fill:#fff"></path><path d="M209.22,312.86a.51.51,0,0,1-.49-.4L201,274.83a.51.51,0,0,1,.39-.59.5.5,0,0,1,.59.39l7.69,37.63a.5.5,0,0,1-.39.59Z" style="fill:#fff"></path><path d="M202.43,330.64a150.45,150.45,0,0,1-5.38-15.54,43.34,43.34,0,0,0,19.09-2.89c.15,6.05,0,11,0,11s15.51-1.77,22.21,1.76,31.39,24.33,35.27,25.39c0,0,1,4.23-1.77,4.93s-43.37-16.92-50.42-17.27S204.58,334.83,202.43,330.64Z" style="fill:#fff"></path><path d="M271.72,355.84c-2,0-9.17-2.74-21.29-7.39-11.86-4.56-25.3-9.72-29-9.91-6.42-.32-17.05-3-19.46-7.67h0a155.79,155.79,0,0,1-5.41-15.62l-.21-.71.74.07A42.89,42.89,0,0,0,216,311.74l.66-.25,0,.71c.11,4.82.06,9,0,10.48,2.9-.29,15.83-1.34,21.94,1.88,3.25,1.71,10.66,7.42,17.83,12.95,7.57,5.83,15.4,11.87,17.33,12.39l.28.08.07.29c.41,1.63.49,4.88-2.13,5.54A1.12,1.12,0,0,1,271.72,355.84Zm-74-40.18a148.14,148.14,0,0,0,5.13,14.75h0c2,3.81,11.21,6.77,18.62,7.14,3.85.19,16.79,5.16,29.3,10,9.27,3.57,19.79,7.63,21,7.33,2-.49,1.61-3.21,1.45-4.07-2.46-1-9.71-6.57-17.37-12.47-7.14-5.5-14.52-11.19-17.69-12.86-6.49-3.41-21.77-1.72-21.92-1.71l-.57.07v-.57c0-.05.1-4.65,0-10.3A44,44,0,0,1,197.74,315.66Z" style="fill:#263238"></path><path d="M174.05,376.4s-3.13,3-5.15,1-7.07-46-10.3-52.3-5.5-15.75-4.21-18.68a31.66,31.66,0,0,1,4.18-6.06,60.63,60.63,0,0,0,14.51,10.3c-2.58,1.49-4.31,2.44-4.31,2.44s9.3,12.55,9.6,20.12S173,372.51,174.05,376.4Z" style="fill:#fff"></path><path d="M170.59,378.58a2.73,2.73,0,0,1-2.05-.89c-1-1-2.28-8.77-4.44-22.37-2-12.54-4.26-26.76-5.95-30-3.08-6-5.65-15.86-4.22-19.11a32,32,0,0,1,4.26-6.18l.35-.43.39.4a60.33,60.33,0,0,0,14.38,10.2l.8.42-.78.46c-1.76,1-3.13,1.79-3.82,2.18,1.7,2.37,9.08,13,9.36,19.93.15,3.66-1.09,12.94-2.28,21.92-1.26,9.47-2.56,19.27-2.05,21.2l.07.29-.21.2a8.24,8.24,0,0,1-2,1.35A4.26,4.26,0,0,1,170.59,378.58Zm-12-77.53a28.79,28.79,0,0,0-3.76,5.53c-1.19,2.68.93,11.89,4.19,18.24,1.77,3.43,3.94,17.11,6.05,30.34,1.56,9.82,3.33,20.95,4.17,21.84,1.39,1.44,3.58-.22,4.25-.78-.39-2.62.81-11.7,2.09-21.29,1.19-8.93,2.41-18.16,2.27-21.74-.29-7.33-9.41-19.71-9.5-19.84l-.34-.46.5-.27s1.39-.77,3.52-2A61.4,61.4,0,0,1,158.61,301.05Z" style="fill:#263238"></path><path d="M180.46,232.46c-1,4-1.66,7.21-1.66,7.21a101.69,101.69,0,0,0-19.74,0c-10.93,1.05-22.5-4.56-22.5-4.56l-1-1.12c-.54-1.31-1.45-3.54-1.84-4.72-.47-1.41-4.28.77-4.28.77s-3.53-1.75-4.94.59-.39,6.91-.39,6.91-.12,1,3.16,3.36c2.51,1.79,6.38,2,8.49,1.77a302.31,302.31,0,0,0,29,9,97.26,97.26,0,0,0,20.8,2.46c1.06,0,3.88-6,4.94-8.81.35-.93,1.16-2.56,2.14-4.53A54,54,0,0,0,180.46,232.46Z" style="fill:#fff"></path><path d="M185.5,254.62a97,97,0,0,1-20.92-2.48c-9.48-2.21-25.74-7.66-28.93-8.95-1.9.2-6,.06-8.71-1.89-3-2.1-3.35-3.27-3.37-3.7s-1-4.85.46-7.23c1.23-2,3.91-1.52,5.35-.89.81-.44,3-1.51,4.09-1.08a1.12,1.12,0,0,1,.68.71c.35,1,1.15,3,1.8,4.6l.91,1c1.06.5,12,5.46,22.15,4.47a105.59,105.59,0,0,1,19.4,0c.21-1,.79-3.68,1.57-6.79l.15-.6.56.28a55.31,55.31,0,0,1,12.23,8.39l.28.26-.25.49c-.92,1.85-1.71,3.45-2,4.33C190.87,245.58,187.33,254.62,185.5,254.62Zm-49.71-12.46.12.05a300.63,300.63,0,0,0,28.9,9,96.24,96.24,0,0,0,20.69,2.45c.73-.27,3.2-5.09,4.47-8.49.34-.9,1.07-2.37,2-4.24a54.63,54.63,0,0,0-11.17-7.7c-.9,3.65-1.5,6.55-1.51,6.58l-.09.45-.46-.06a102.4,102.4,0,0,0-19.64,0c-10.95,1.06-22.65-4.54-22.76-4.6l-.15-.11-1.13-1.27c-.66-1.58-1.49-3.66-1.85-4.75a.16.16,0,0,0-.1-.1c-.6-.23-2.42.55-3.46,1.14l-.23.14-.24-.12s-3.14-1.52-4.29.4c-1.28,2.14-.34,6.5-.33,6.54v.17h0s.21.93,3,2.89c2.53,1.81,6.43,1.9,8.14,1.69Z" style="fill:#263238"></path><path d="M171.88,176.9a3.82,3.82,0,0,1-3.4-3.4c-.57-3.26,5.24-5.67,6.24-5s0,2.26,0,2.26,3.4-2.55,3.68-1.41a2.67,2.67,0,0,1,0,1.7s7.23-.85,11.2,1,8.79,7.09,6.94,13.61-5.67,12-8.22,12.61-6.23-.57-6.94-2.12.42-1.56-2.41-3.83-6.1-5.81-4.68-8.79S173.72,177.18,171.88,176.9Z" style="fill:#263238"></path><path d="M186.83,199c-2.52,0-5.24-1.1-5.91-2.58a3.92,3.92,0,0,1-.34-1.25c-.07-.55-.12-.95-1.93-2.39-2.51-2-6.47-5.9-4.81-9.39a4.8,4.8,0,0,0-.15-4.27,3,3,0,0,0-1.87-1.68,4.38,4.38,0,0,1-3.83-3.82c-.28-1.57.7-3.18,2.66-4.42,1.52-.95,3.56-1.6,4.36-1a1.55,1.55,0,0,1,.65,1.42c.93-.58,2.05-1.12,2.68-.89a.83.83,0,0,1,.55.61,4.36,4.36,0,0,1,.13,1.25c1.92-.16,7.42-.46,10.79,1.11,3.84,1.78,9.19,7.21,7.21,14.19-1.83,6.51-5.69,12.33-8.59,13A7.62,7.62,0,0,1,186.83,199Zm-12.64-30.05a7,7,0,0,0-3.39,1.36c-.79.56-2.08,1.72-1.83,3.14a3.33,3.33,0,0,0,2.94,3H172a3.9,3.9,0,0,1,2.61,2.2,5.78,5.78,0,0,1,.17,5.17c-1.42,3,2.7,6.71,4.54,8.18,2,1.61,2.18,2.21,2.29,3a2.94,2.94,0,0,0,.26,1c.57,1.24,3.89,2.4,6.38,1.84,2.22-.49,6-5.64,7.85-12.26,1.81-6.39-3.13-11.37-6.67-13-3.8-1.76-10.86-.95-10.93-.95l-.92.11.41-.83h0a2.25,2.25,0,0,0,0-1.27A9,9,0,0,0,175,171.2l-2.17,1.63,1.44-2.29s.72-1.18.13-1.6A.6.6,0,0,0,174.19,168.91Z" style="fill:#263238"></path><path d="M171,175.62a13.9,13.9,0,0,0-3.12,6.38c-.71,3.83.57,5.39-.56,6.95s-3.69,3.4-2.7,4.53a7.84,7.84,0,0,0,3.4,1.7,20,20,0,0,0,1.18,5.68c1,2.26,1.8,6.65,4.49,6.37s9.5-4.53,9.92-6.94a18.7,18.7,0,0,0-.14-5.53s3-5.25,2-7.51-3.83-.71-4.68.42-.43,3.12-1.84,1.7-.57-2.69-1.42-3.26a2.26,2.26,0,0,1-.71-3.4c1.14-1.56,3-3.83,1-5.67S172.45,175.48,171,175.62Z" style="fill:#fff"></path><path d="M173.46,207.75c-2.29,0-3.28-2.81-4.08-5.09-.21-.58-.4-1.14-.6-1.6a19.2,19.2,0,0,1-1.2-5.49,7.49,7.49,0,0,1-3.3-1.76c-1-1.15.32-2.57,1.5-3.82a14.71,14.71,0,0,0,1.16-1.34,3.3,3.3,0,0,0,.34-2.45,14.63,14.63,0,0,1,.14-4.29,14.15,14.15,0,0,1,3.25-6.63l.12-.13.19,0c1.23-.13,5-.5,7.19,1.54s.36,4.58-.75,6.09l-.17.24a1.81,1.81,0,0,0-.4,1.36,2.26,2.26,0,0,0,1,1.34,1.79,1.79,0,0,1,.69,1.47,2.8,2.8,0,0,0,1.12,2.13c0-.12.09-.3.13-.44a4.54,4.54,0,0,1,.64-1.49,4.7,4.7,0,0,1,3.69-1.77,2.26,2.26,0,0,1,1.85,1.45c1,2.27-1.36,6.78-1.92,7.8a18.94,18.94,0,0,1,.11,5.52c-.47,2.68-7.54,7.06-10.36,7.36Zm-2.19-31.65a13.72,13.72,0,0,0-2.87,6,14.2,14.2,0,0,0-.13,4,4.14,4.14,0,0,1-.52,3.12,15.81,15.81,0,0,1-1.24,1.43c-.89,1-1.89,2-1.48,2.48a7.28,7.28,0,0,0,3.14,1.55l.36.08,0,.38a19.66,19.66,0,0,0,1.14,5.5c.21.48.42,1.06.63,1.67.76,2.15,1.63,4.58,3.35,4.4,2.63-.27,9.12-4.49,9.48-6.53a18.06,18.06,0,0,0-.14-5.35l0-.18.09-.16c.79-1.4,2.69-5.39,2-7.06a1.26,1.26,0,0,0-1-.85,3.66,3.66,0,0,0-2.78,1.37,3.6,3.6,0,0,0-.48,1.16c-.15.55-.3,1.08-.81,1.21s-.93-.24-1.31-.61a3.65,3.65,0,0,1-1.08-2.44c-.06-.48-.09-.65-.26-.76a3.23,3.23,0,0,1-1.4-2,2.68,2.68,0,0,1,.57-2.12l.18-.25c1.38-1.88,2.32-3.42.87-4.76C175.72,175.76,172.56,176,171.27,176.1Z" style="fill:#263238"></path><path d="M171.37,188.07c0,.78-.28,1.42-.63,1.42s-.62-.64-.62-1.42.28-1.43.62-1.43S171.37,187.28,171.37,188.07Z" style="fill:#263238"></path><path d="M173,185.72a.5.5,0,0,1-.45-.27c-.41-.81-.88-1.28-1.4-1.39a1.55,1.55,0,0,0-1.21.31.5.5,0,1,1-.64-.78,2.65,2.65,0,0,1,2.06-.51,3.21,3.21,0,0,1,2.08,1.92.49.49,0,0,1-.22.67A.44.44,0,0,1,173,185.72Z" style="fill:#263238"></path><path d="M170.38,198.3h-.31a.5.5,0,0,1-.47-.54.51.51,0,0,1,.54-.46s2.54.15,2.87-1.51a.49.49,0,0,1,.59-.39.5.5,0,0,1,.39.59C173.62,197.83,171.62,198.3,170.38,198.3Z" style="fill:#263238"></path></g><g id="freepik--character-2--inject-5"><path d="M372.44,409.29c0,2.47-29.54,4.47-66,4.47s-66-2-66-4.47,29.54-4.47,66-4.47S372.44,406.82,372.44,409.29Z" style="fill:#263238"></path><path d="M280.39,287.11s-13.38,22.2-16.22,30.17c-3.07,8.58-8.82,11.85-9.11,20.78-.86,26.18-15.56,50.55-17.08,53.51s-5.41,2.85-10,1.14S215.49,389,215.21,391s5.12,7.4,8.25,9.11,7.4,2,9.11,3.7,4.27,4,7.4,3.13,4.84-11.67,7.69-15.94,11.1-17.36,17.36-25.9,6-26.19,6.83-27.61,13.66-13.95,17.93-19.93,6.83-14.8,6.83-14.8a22.85,22.85,0,0,0,0-9.67C295.48,287.68,290.92,281.7,280.39,287.11Z" style="fill:#263238"></path><path d="M238.58,407.63c-2.51,0-4.6-1.71-6.36-3.47-.86-.85-2.55-1.35-4.35-1.88a24.75,24.75,0,0,1-4.65-1.73c-2.94-1.61-8.85-7.19-8.51-9.62a1.25,1.25,0,0,1,.63-.9c2.21-1.3,10.22,1.22,12.85,2.21,3.4,1.27,7.78,2.15,9.34-.9l.67-1.23C248.54,371.37,254,353.85,254.56,338c.18-5.48,2.39-8.92,4.72-12.56a39.47,39.47,0,0,0,4.42-8.37c2.83-7.92,15.71-29.35,16.26-30.26a.49.49,0,0,1,.2-.18c4.6-2.36,8.48-2.82,11.55-1.36,2.67,1.27,4.63,4.07,5.39,7.67a23.22,23.22,0,0,1,0,9.91c0,.1-2.64,9-6.91,15-2.7,3.78-8.72,10.08-13.12,14.69-2.41,2.53-4.5,4.71-4.79,5.2a24.55,24.55,0,0,0-.52,3.9c-.58,6.07-1.66,17.37-6.34,23.74s-10.51,15.38-14.36,21.3c-1.25,1.94-2.28,3.53-3,4.59a35.67,35.67,0,0,0-3,7.33c-1.45,4.24-2.82,8.24-4.92,8.81A5.85,5.85,0,0,1,238.58,407.63Zm-21.39-17a2.85,2.85,0,0,0-1.34.23.28.28,0,0,0-.15.18c-.22,1.54,4.64,6.77,8,8.6a23,23,0,0,0,4.45,1.65c1.93.56,3.74,1.1,4.78,2.13,1.89,1.9,4.2,3.74,6.91,3,1.59-.44,3-4.55,4.23-8.18a36.51,36.51,0,0,1,3.17-7.56c.7-1.05,1.74-2.64,3-4.57,3.85-5.94,9.66-14.91,14.39-21.35,4.51-6.15,5.58-17.27,6.15-23.25.25-2.66.38-3.86.65-4.32a70,70,0,0,1,4.93-5.37c4.37-4.58,10.36-10.86,13-14.59,4.17-5.84,6.73-14.56,6.75-14.65a22.65,22.65,0,0,0,0-9.43c-.7-3.3-2.46-5.84-4.85-7-2.74-1.31-6.29-.88-10.54,1.27-1.07,1.79-13.41,22.43-16.1,30a39.65,39.65,0,0,1-4.52,8.57c-2.36,3.67-4.39,6.84-4.56,12.05-.52,16-6.07,33.64-16.48,52.52-.3.55-.53,1-.65,1.21-1.05,2-3.74,3.95-10.59,1.37C224.18,391.8,219.59,390.66,217.19,390.66Z" style="fill:#263238"></path><path d="M298.6,218a27.39,27.39,0,0,1,9.08,8.07c3.28,5,10.56,19.53,11.6,21.43,1.52,2.78.25,4.29-2.77,6.06-1.4.81-14.88,6.55-17.65,7.81a20.14,20.14,0,0,1-5.8,1.52l-1-4.54L305.67,247s-2.27-2.77-4.29-9.33S292.05,222,298.6,218Z" style="fill:#fff"></path><path d="M293.06,263.34a.49.49,0,0,1-.49-.39l-1-4.54a.5.5,0,0,1,.17-.5l13.25-11a33.29,33.29,0,0,1-4.08-9.1,42.87,42.87,0,0,0-2.32-5.5c-2.55-5.41-5.45-11.54-.24-14.75a.5.5,0,0,1,.5,0,27.38,27.38,0,0,1,9.26,8.24c2.56,3.94,7.48,13.46,10.12,18.58.73,1.42,1.27,2.46,1.5,2.88,1.72,3.16.15,4.92-3,6.73-.94.55-7.06,3.2-12,5.34-2.55,1.11-4.77,2.07-5.72,2.5a20.13,20.13,0,0,1-6,1.55Zm-.46-4.85.85,3.8a19.56,19.56,0,0,0,5.2-1.42c1-.43,3.17-1.4,5.74-2.51,4.63-2,11-4.77,11.87-5.28,3.21-1.88,3.81-3.14,2.58-5.39-.23-.42-.77-1.47-1.51-2.9-2.63-5.1-7.53-14.6-10.07-18.5a26.77,26.77,0,0,0-8.63-7.76c-4.12,2.79-1.59,8.14.86,13.31a46,46,0,0,1,2.37,5.63c1.95,6.36,4.17,9.14,4.19,9.16a.49.49,0,0,1-.06.7Z" style="fill:#263238"></path><path d="M302.39,188.19s5.29-.5,7.06,3.79,1.51,10.33-.25,17.9,1.51,14.12,4,15.13a6.73,6.73,0,0,0,4.54.25l-1.26-5.55a20.87,20.87,0,0,0,11.6,7.82c7.82,2,20.93-3,25.22-8.82s3.53-12.61,2-11.1-8.07,3.28-13.11-2.77-7.06-15.89-11.85-19.67-16.65-1.26-16.65-1.26,7.07-2.78,3-2.78A17.47,17.47,0,0,0,302.39,188.19Z" style="fill:#263238"></path><path d="M332.06,228.49A16.66,16.66,0,0,1,328,228a21.66,21.66,0,0,1-10.5-6.31l.78,3.44a.51.51,0,0,1-.31.58,7.27,7.27,0,0,1-4.91-.26c-2.91-1.16-6.12-8-4.33-15.7,1.83-7.85,1.92-13.61.28-17.6s-6.5-3.48-6.56-3.48a.49.49,0,0,1-.48-.25.5.5,0,0,1,0-.54,18,18,0,0,1,14.78-7.27c.52,0,1.6,0,1.73.72.05.23.13.67-1.29,1.51,4-.46,10.21-.67,13.49,1.91,2.67,2.12,4.47,6,6.38,10,1.6,3.42,3.26,7,5.54,9.71a10.35,10.35,0,0,0,7.58,4,7,7,0,0,0,4.8-1.3.93.93,0,0,1,1.35-.14c1.26,1.09,1,7-2.61,11.88S340.07,228.49,332.06,228.49Zm-15.55-9.28a.53.53,0,0,1,.42.23,20.48,20.48,0,0,0,11.3,7.61c7.77,2,20.71-3.25,24.69-8.64,3.51-4.75,3.4-9.78,2.82-10.48l0,0a7.84,7.84,0,0,1-5.55,1.6,11.29,11.29,0,0,1-8.3-4.4c-2.37-2.84-4.06-6.45-5.69-9.93-1.85-4-3.6-7.71-6.09-9.67-4.56-3.6-16.12-1.19-16.23-1.16a.5.5,0,0,1-.29-1,21.85,21.85,0,0,0,3.68-1.79l-.47,0a17.09,17.09,0,0,0-13.35,6.06c1.74.11,5.12.75,6.5,4.09,1.73,4.2,1.65,10.16-.23,18.21-1.7,7.3,1.5,13.66,3.74,14.56a6.61,6.61,0,0,0,3.76.36L316,219.83a.52.52,0,0,1,.29-.58A.71.71,0,0,1,316.51,219.21Z" style="fill:#263238"></path><path d="M341.5,224.8a.37.37,0,0,1-.12-.73,15,15,0,0,0,4.29-2.25.38.38,0,0,1,.53.07.39.39,0,0,1-.07.53,16,16,0,0,1-4.51,2.36Z" style="fill:#fff"></path><path d="M335.34,225.78c-6.38,0-12.3-2.92-14.67-7.46-2-3.86-2.39-8.57-2.75-13.13s-.72-9.13-2.67-12.85-3.48-4.52-4.47-4.62a2.16,2.16,0,0,0-1.76.71.37.37,0,1,1-.58-.47,2.89,2.89,0,0,1,2.41-1c1.7.17,3.41,1.86,5.07,5,2,3.86,2.39,8.58,2.75,13.14s.71,9.12,2.66,12.84c2.56,4.89,9.5,7.79,16.52,6.9a.37.37,0,0,1,.42.33.38.38,0,0,1-.32.42A20.9,20.9,0,0,1,335.34,225.78Z" style="fill:#fff"></path><path d="M341.93,219.54a11.73,11.73,0,0,1-1.33-.07,13.17,13.17,0,0,1-9.81-6.17c-2.18-3.46-3-8.12-3.77-12.63-.67-3.84-1.3-7.48-2.75-9.61a.38.38,0,0,1,.1-.52.39.39,0,0,1,.53.1c1.53,2.27,2.17,6,2.85,9.91.77,4.43,1.57,9,3.67,12.35a12.44,12.44,0,0,0,9.25,5.83c4.68.47,9.64-1.75,14-6.26a.39.39,0,0,1,.53,0,.38.38,0,0,1,0,.54C351.09,217.25,346.43,219.54,341.93,219.54Z" style="fill:#fff"></path><path d="M321.31,188.56a.51.51,0,0,1-.17,0,13.09,13.09,0,0,0-2.77-1,.38.38,0,0,1-.28-.45.36.36,0,0,1,.45-.28,13.83,13.83,0,0,1,2.93,1,.36.36,0,0,1,.17.5A.35.35,0,0,1,321.31,188.56Z" style="fill:#fff"></path><path d="M284.09,205.7s2.85,5.13,3.42,7.69.85,6-4.56,10.82-10,11.95-8.54,16.5,4.84,14.52,6,22.77-1.42,20.78-.85,25.62,7.11,13.09,15.94,17.36,17.36-6.83,18.21-14.8-5.41-17.36-8.82-21.63-4.27-3.7-4.27-6.26,4.84-30.17,3.13-40.13-6.26-12-7.12-14.8-3.41-15.09-3.41-15.09Z" style="fill:#263238"></path><path d="M299.48,307.91a9.54,9.54,0,0,1-4.22-1c-9-4.33-15.62-12.68-16.22-17.75a54.81,54.81,0,0,1,.44-9.45c.5-5.36,1.06-11.45.41-16.16-1-7.12-3.68-15.57-5.3-20.62-.25-.77-.47-1.47-.65-2.07-1.56-5,3.41-12.31,8.68-17s5-7.75,4.4-10.33-3.34-7.5-3.37-7.55a.52.52,0,0,1,0-.55l9.11-12a.5.5,0,0,1,.51-.19.52.52,0,0,1,.38.39c0,.12,2.56,12.25,3.4,15a8.67,8.67,0,0,0,1.68,2.62,24.12,24.12,0,0,1,5.45,12.24c1.29,7.52-1.1,24.9-2.38,34.23-.42,3-.74,5.38-.74,6,0,1.44.23,1.67,1.36,2.81a39.21,39.21,0,0,1,2.8,3.14c2.33,2.92,9.88,13.13,8.93,22-.62,5.74-4.73,12.09-9.56,14.77A10.52,10.52,0,0,1,299.48,307.91Zm-14.8-102.16c.62,1.13,2.81,5.25,3.31,7.53.69,3.07.59,6.56-4.71,11.3s-9.75,11.64-8.39,16l.65,2.06c1.63,5.08,4.35,13.58,5.34,20.8.67,4.82.1,11-.41,16.38A55.87,55.87,0,0,0,280,289c.56,4.71,7.13,12.84,15.66,17a8.87,8.87,0,0,0,8.45-.39c5-2.79,8.55-9.32,9.05-14,.91-8.49-6.44-18.42-8.71-21.27a34.24,34.24,0,0,0-2.74-3c-1.16-1.19-1.64-1.67-1.64-3.52,0-.68.3-2.85.75-6.13,1.27-9.28,3.65-26.55,2.39-33.92A23,23,0,0,0,298,211.93a9.1,9.1,0,0,1-1.85-3c-.72-2.37-2.56-11-3.21-14.06Z" style="fill:#263238"></path><path d="M300.46,214.49c-1.68-2.69-3.36-4-3.85-5.65-.85-2.85-3.41-15.09-3.41-15.09l-9.11,11.95s2.85,5.13,3.42,7.69c.46,2.09.73,4.74-2.11,8.27Z" style="fill:#fff"></path><path d="M285.4,222.16a.5.5,0,0,1-.39-.81c2.71-3.37,2.46-5.82,2-7.85-.55-2.46-3.34-7.5-3.37-7.55a.52.52,0,0,1,0-.55l9.11-12a.51.51,0,0,1,.51-.19.52.52,0,0,1,.38.39c0,.12,2.56,12.25,3.4,15a8.67,8.67,0,0,0,1.68,2.62,30.42,30.42,0,0,1,2.11,2.92.48.48,0,0,1,.06.4.49.49,0,0,1-.27.31l-15.05,7.17A.44.44,0,0,1,285.4,222.16Zm-.72-16.41c.62,1.13,2.81,5.25,3.31,7.53a8.84,8.84,0,0,1-1.08,7.11l12.82-6.11c-.61-.91-1.21-1.67-1.74-2.34a9.24,9.24,0,0,1-1.85-3c-.72-2.37-2.56-11-3.21-14.06Z" style="fill:#263238"></path><path d="M273.84,185.21a8,8,0,0,0-.28,3.42c.28,1.7,1.42,2.27,0,3.7s-3.7,2.56-2.56,3.41a28.69,28.69,0,0,0,3.41,2s.86,7.12,2,9.11,5.12,1.43,7.68.29,8.54-4.27,10-7.12,3.42-10.24,2.85-13.95-9.68-7.68-14.8-7.68S273.27,181.23,273.84,185.21Z" style="fill:#fff"></path><path d="M279.5,208.67a3.8,3.8,0,0,1-3.53-1.58c-1.06-1.85-1.85-7.69-2-9a26.69,26.69,0,0,1-3.25-1.92,1.1,1.1,0,0,1-.51-.89c0-.76.76-1.38,1.74-2.17.44-.36.89-.72,1.28-1.11.74-.74.62-1,.3-1.83a5.78,5.78,0,0,1-.44-1.43,8.5,8.5,0,0,1,.26-3.54,5.59,5.59,0,0,1,1.35-4.45,9.74,9.74,0,0,1,7.42-2.84c5.16,0,14.66,4,15.29,8.11.57,3.69-1.36,11.19-2.89,14.25-1.79,3.57-9.86,7.19-10.21,7.34A12.61,12.61,0,0,1,279.5,208.67Zm2.6-29.79c-2.86,0-5.29.91-6.67,2.5a4.62,4.62,0,0,0-1.09,3.76.58.58,0,0,1,0,.23,7.47,7.47,0,0,0-.27,3.17,5.85,5.85,0,0,0,.38,1.22,2.23,2.23,0,0,1-.52,2.92,16.64,16.64,0,0,1-1.35,1.17c-.55.45-1.38,1.11-1.37,1.38a.29.29,0,0,0,.11.11,28.25,28.25,0,0,0,3.34,1.95.49.49,0,0,1,.27.39c0,.07.85,7,1.93,8.91,1,1.68,4.7,1.12,7.05.08,2.79-1.24,8.41-4.28,9.71-6.88s3.36-10,2.8-13.65C295.9,182.84,287.19,178.88,282.1,178.88Z" style="fill:#263238"></path><ellipse cx="277.67" cy="190.86" rx="0.75" ry="1.71" style="fill:#263238"></ellipse><path d="M279.58,188.94a.49.49,0,0,1-.45-.28,2.85,2.85,0,0,0-1.75-1.72,2.11,2.11,0,0,0-1.54.39.49.49,0,0,1-.7-.07.49.49,0,0,1,.07-.7,3,3,0,0,1,2.38-.6,3.77,3.77,0,0,1,2.43,2.25.5.5,0,0,1-.22.68A.59.59,0,0,1,279.58,188.94Z" style="fill:#263238"></path><path d="M277.5,200.21h-.38a.5.5,0,0,1-.46-.53.52.52,0,0,1,.53-.47s3.14.19,3.56-1.89a.49.49,0,0,1,.58-.39.5.5,0,0,1,.4.59C281.29,199.67,279,200.21,277.5,200.21Z" style="fill:#263238"></path><path d="M282.59,180.36s-1.73,4.74,2.59,9.92S295.53,192,295.53,192s-5.12,7.81-1.48,8,8.29-3.12,8.34-11.82S293.38,173,282.59,180.36Z" style="fill:#263238"></path><path d="M294.35,200.52H294a1.72,1.72,0,0,1-1.57-.91c-.77-1.53.79-4.7,1.84-6.54a8.34,8.34,0,0,1-9.51-2.46c-4.44-5.34-2.74-10.21-2.67-10.41a.53.53,0,0,1,.19-.25c5.16-3.5,10.53-4.23,14.74-2a11.37,11.37,0,0,1,5.84,10.24c0,5.69-2,8.71-3.59,10.24A7.33,7.33,0,0,1,294.35,200.52Zm1.18-9a.49.49,0,0,1,.42.77c-1.32,2-3.2,5.68-2.59,6.87.07.14.22.34.72.36a6.18,6.18,0,0,0,4.53-1.8c1.48-1.39,3.25-4.17,3.28-9.52a10.39,10.39,0,0,0-5.31-9.35c-3.83-2-8.77-1.37-13.57,1.84-.24.82-1.15,4.84,2.55,9.28,4,4.8,9.67,1.64,9.72,1.61A.57.57,0,0,1,295.53,191.51Z" style="fill:#263238"></path><path d="M274.41,179.8s-17.64,1.71-15.65,3.42,10.24,2,15.08,2a36.19,36.19,0,0,0,10.43-2Z" style="fill:#4CAF50"></path><path d="M273.84,185.71c-4.83,0-13.26-.27-15.41-2.11a.79.79,0,0,1-.29-.88c.52-1.66,10.39-2.85,16.23-3.41a.44.44,0,0,1,.2,0l9.86,3.36a.51.51,0,0,1,.34.47.52.52,0,0,1-.33.48A36.4,36.4,0,0,1,273.84,185.71Zm-14.63-2.78c1.58,1.12,7,1.78,14.63,1.78a33.25,33.25,0,0,0,8.86-1.55l-8.35-2.85C267.64,181,260.41,182.09,259.21,182.93Z" style="fill:#263238"></path><path d="M274.41,179.8l28.47,11.1s3.13-8.82,2-14.51-8.83-10.82-16.51-10.82S275.84,169.56,274.41,179.8Z" style="fill:#4CAF50"></path><path d="M302.88,191.4a.58.58,0,0,1-.19,0l-28.46-11.1a.52.52,0,0,1-.31-.54c1.39-10,6-14.66,14.44-14.66,7.86,0,15.8,5.24,17,11.22,1.15,5.76-1.88,14.42-2,14.78a.51.51,0,0,1-.27.29A.45.45,0,0,1,302.88,191.4ZM275,179.48l27.61,10.77c.62-1.92,2.76-9,1.81-13.76-1.11-5.55-8.6-10.42-16-10.42C280.6,166.07,276.33,170.33,275,179.48Z" style="fill:#263238"></path><polygon points="293.2 186.63 294.62 165.29 297.18 166.14 295.76 187.49 293.2 186.63" style="fill:#fff"></polygon><path d="M295.76,188a.45.45,0,0,1-.16,0l-2.56-.85a.49.49,0,0,1-.34-.51l1.42-21.35a.5.5,0,0,1,.22-.38.52.52,0,0,1,.44-.06l2.56.86a.48.48,0,0,1,.34.5l-1.42,21.35a.47.47,0,0,1-.22.38A.47.47,0,0,1,295.76,188Zm-2-1.71,1.58.53,1.36-20.32-1.58-.52Z" style="fill:#263238"></path><path d="M300,191.19a6,6,0,1,0-6,6A6,6,0,0,0,300,191.19Z" style="fill:#fff"></path><path d="M294.05,197.67a6.48,6.48,0,1,1,6.48-6.48A6.48,6.48,0,0,1,294.05,197.67Zm0-12a5.48,5.48,0,1,0,5.48,5.48A5.48,5.48,0,0,0,294.05,185.71Z" style="fill:#263238"></path><path d="M297.27,191.19a3.22,3.22,0,1,0-3.22,3.22A3.22,3.22,0,0,0,297.27,191.19Z" style="fill:#fff"></path><path d="M294.05,194.91a3.72,3.72,0,1,1,3.72-3.72A3.73,3.73,0,0,1,294.05,194.91Zm0-6.44a2.72,2.72,0,1,0,2.72,2.72A2.72,2.72,0,0,0,294.05,188.47Z" style="fill:#263238"></path><path d="M295.76,296.22s3.13,23,6,35.86,9.11,24.76,11.95,26.19,17.93,3.7,29.6,5.4,30.46,2.85,30.46,2.85,2.56,8.82,2.56,12.52-1.42,8.26.85,8.54,5.7-7.4,6.55-10.81,1.14-11.67,2-14.8.57-3.7-3.13-4-6.83,0-9.39-.57-16.79-3.13-23.62-7.11S330.2,346,328.49,346h-4.84s-2.27-18.79-2.27-25.62.28-21.35-4-31S308.28,276,306.86,276" style="fill:#263238"></path><path d="M377.28,388.09h-.18c-2.1-.26-1.82-2.94-1.52-5.77.11-1.09.23-2.22.23-3.27,0-3.18-2-10.4-2.44-12-2.65-.17-19.47-1.27-30.15-2.83-13.84-2-27-4.09-29.75-5.46-3.2-1.6-9.47-14.15-12.22-26.52-2.82-12.68-5.95-35.68-6-35.91a.51.51,0,0,1,.43-.56.49.49,0,0,1,.56.43c0,.23,3.17,23.18,6,35.82,2.85,12.84,9,24.53,11.69,25.85,3,1.48,20.85,4.1,29.45,5.36,11.51,1.69,30.22,2.83,30.41,2.84a.52.52,0,0,1,.45.36c.1.37,2.58,8.94,2.58,12.66a32.19,32.19,0,0,1-.24,3.38c-.28,2.73-.39,4.54.66,4.67,1.63.17,5-6.46,6-10.44a64.67,64.67,0,0,0,1-7.33,57.63,57.63,0,0,1,1-7.49c.36-1.31.52-2.2.24-2.61s-1.4-.62-2.93-.74-2.77-.13-4.07-.16a26.87,26.87,0,0,1-5.39-.42l-1.35-.28c-4.46-.91-16.32-3.33-22.42-6.89-7.12-4.15-20.67-4.2-20.81-4.2h-4.84a.5.5,0,0,1-.49-.44c0-.19-2.28-18.9-2.28-25.68V319.2c0-7.19,0-20.57-3.95-29.61-4.38-9.95-9.12-13.08-10.07-13.08a.5.5,0,0,1,0-1c1.73,0,6.72,4,11,13.67,4.07,9.24,4,22.76,4,30v1.21c0,6.15,1.88,22.25,2.22,25.12h4.39c.14,0,14,.05,21.32,4.34,5.95,3.47,17.69,5.87,22.11,6.77l1.37.28a26.06,26.06,0,0,0,5.19.4c1.31,0,2.66.05,4.13.16,1.95.15,3.11.38,3.66,1.17s.38,1.74-.08,3.45a55.19,55.19,0,0,0-1,7.32,61.51,61.51,0,0,1-1,7.47C383.5,379.65,380.16,388.09,377.28,388.09Z" style="fill:#263238"></path><path d="M343.54,356.55l-.12,0-4-1a.48.48,0,0,1-.36-.6.49.49,0,0,1,.6-.37l4,1a.51.51,0,0,1,.36.61A.49.49,0,0,1,343.54,356.55Z" style="fill:#fff"></path><path d="M335.05,354.47l-.12,0-12.77-3.13a2.74,2.74,0,0,1-2.42.14,2.44,2.44,0,0,1-1-2.29c0-1.1-.35-4.93-.79-9.79-.86-9.47-2-22.45-2-29.86,0-4.45-1.52-10.3-4.4-16.92a.5.5,0,0,1,.92-.39c3,6.83,4.48,12.66,4.48,17.31,0,7.36,1.18,20.32,2,29.77.46,5.07.79,8.73.79,9.88,0,.52.08,1.19.48,1.42s1.34-.09,1.61-.24l.17-.09,13.15,3.22a.5.5,0,0,1-.12,1Z" style="fill:#fff"></path><path d="M310.2,289a.48.48,0,0,1-.45-.28c-1.67-3.38-3-5.66-3.05-5.68a.5.5,0,0,1,.17-.69.5.5,0,0,1,.68.17s1.41,2.33,3.09,5.76a.5.5,0,0,1-.22.67A.63.63,0,0,1,310.2,289Z" style="fill:#fff"></path><path d="M382.57,358c-3.7-.28-6.83,0-9.39-.57s-16.79-3.13-23.62-7.11a21.87,21.87,0,0,0-4.1-1.79,20.28,20.28,0,0,1-.74,9.76,46.84,46.84,0,0,1-2.43,5.26l1,.14c11.67,1.71,30.46,2.85,30.46,2.85s2.56,8.82,2.56,12.52-1.42,8.26.85,8.54,5.7-7.4,6.55-10.81,1.14-11.67,2-14.8S386.27,358.27,382.57,358Z" style="fill:#fff"></path><path d="M377.28,388.09h-.18c-2.1-.26-1.82-2.94-1.52-5.77.11-1.09.23-2.22.23-3.27,0-3.18-2-10.4-2.44-12-2.65-.17-19.47-1.27-30.15-2.83l-1-.15a.47.47,0,0,1-.37-.27.5.5,0,0,1,0-.46,45,45,0,0,0,2.4-5.21,19.25,19.25,0,0,0,.71-9.5.51.51,0,0,1,.66-.55,22.27,22.27,0,0,1,4.19,1.84c5.95,3.47,17.69,5.87,22.11,6.77l1.37.28a26.06,26.06,0,0,0,5.19.4c1.31,0,2.66.05,4.13.16,1.95.15,3.11.38,3.66,1.17s.38,1.74-.08,3.45a55.19,55.19,0,0,0-1,7.32,61.51,61.51,0,0,1-1,7.47C383.5,379.65,380.16,388.09,377.28,388.09Zm-34.21-24.95.3,0c11.51,1.69,30.22,2.83,30.41,2.84a.52.52,0,0,1,.45.36c.1.37,2.58,8.94,2.58,12.66a32.19,32.19,0,0,1-.24,3.38c-.28,2.73-.39,4.54.66,4.67,1.63.17,5-6.46,6-10.44a64.67,64.67,0,0,0,1-7.33,57.63,57.63,0,0,1,1-7.49c.36-1.31.52-2.2.24-2.61s-1.4-.62-2.93-.74h0c-1.44-.11-2.77-.13-4.07-.16a26.87,26.87,0,0,1-5.39-.42l-1.35-.28c-4.46-.91-16.32-3.33-22.42-6.89a20.24,20.24,0,0,0-3.25-1.49,19.41,19.41,0,0,1-.87,9.21A48.59,48.59,0,0,1,343.07,363.14Z" style="fill:#263238"></path><path d="M382.57,358c-1-.07-1.88-.11-2.77-.13a7.23,7.23,0,0,1,.21,1.56c0,2.27-1.71,6.26-3.7,6.26s-2.56.85-2.56.85,2.56,8.82,2.56,12.52-1.42,8.26.85,8.54,5.7-7.4,6.55-10.81,1.14-11.67,2-14.8S386.27,358.27,382.57,358Z" style="fill:#4CAF50"></path><path d="M377.28,388.09h-.18c-2.1-.26-1.82-2.94-1.52-5.77.11-1.09.23-2.22.23-3.27,0-3.58-2.52-12.29-2.54-12.38a.52.52,0,0,1,.06-.42c.08-.11.78-1.07,3-1.07,1.59,0,3.2-3.7,3.2-5.76a6.89,6.89,0,0,0-.2-1.45.49.49,0,0,1,.11-.42.45.45,0,0,1,.39-.19c1.1,0,2,.07,2.8.13h0c1.95.15,3.11.38,3.66,1.17s.38,1.74-.08,3.45a55.19,55.19,0,0,0-1,7.32,61.51,61.51,0,0,1-1,7.47C383.5,379.65,380.16,388.09,377.28,388.09Zm-3-21.42c.45,1.58,2.5,9,2.5,12.37a32.19,32.19,0,0,1-.24,3.38c-.28,2.73-.39,4.54.66,4.67,1.63.17,5-6.46,6-10.44a64.67,64.67,0,0,0,1-7.33,57.63,57.63,0,0,1,1-7.49c.36-1.31.52-2.2.24-2.61s-1.4-.62-2.93-.74h0c-.65-.05-1.32-.09-2.12-.11a5.86,5.86,0,0,1,.1,1c0,2.31-1.77,6.76-4.2,6.76A3.29,3.29,0,0,0,374.31,366.67Z" style="fill:#263238"></path><path d="M385.7,362c.72-2.62.63-3.45-1.58-3.81-.54,4.15-2.12,15.16-3.69,20.27a18.17,18.17,0,0,1-4.54,7.26c.08,1.06.41,1.79,1.27,1.89,2.28.29,5.7-7.4,6.55-10.81S384.85,365.1,385.7,362Z" style="fill:#263238"></path><path d="M377.28,388.09h-.18c-1-.13-1.6-.92-1.71-2.35v-.23l.16-.16a17.63,17.63,0,0,0,4.41-7.06c1.76-5.7,3.48-18.72,3.67-20.19l.07-.51.51.08a2.85,2.85,0,0,1,2.11,1c.47.74.32,1.76-.12,3.39a55.19,55.19,0,0,0-1,7.32,61.51,61.51,0,0,1-1,7.47C383.5,379.65,380.16,388.09,377.28,388.09Zm-.87-2.21c.14,1.12.59,1.18.82,1.21,1.63.17,5-6.46,6-10.44a64.67,64.67,0,0,0,1-7.33,57.63,57.63,0,0,1,1-7.49h0c.35-1.28.52-2.16.25-2.58a1.53,1.53,0,0,0-.93-.5c-.38,2.9-2,14.49-3.63,19.83A18.68,18.68,0,0,1,376.41,385.88Z" style="fill:#263238"></path><path d="M249.63,365.85A155.67,155.67,0,0,1,238,391.57c-1.52,3-5.41,2.85-10,1.14S215.49,389,215.21,391s5.12,7.4,8.25,9.11,7.4,2,9.11,3.7,4.27,4,7.4,3.13,4.84-11.67,7.69-15.94c2.31-3.46,8.17-12.73,13.65-20.67A25.3,25.3,0,0,1,249.63,365.85Z" style="fill:#fff"></path><path d="M238.58,407.63c-2.51,0-4.6-1.71-6.36-3.47-.86-.85-2.55-1.35-4.35-1.88a24.75,24.75,0,0,1-4.65-1.73c-2.94-1.61-8.85-7.19-8.51-9.62a1.25,1.25,0,0,1,.63-.9c2.21-1.3,10.22,1.22,12.85,2.21,3.4,1.27,7.78,2.15,9.34-.9l.67-1.23a150.23,150.23,0,0,0,11-24.42.49.49,0,0,1,.32-.31.47.47,0,0,1,.44.07,24.72,24.72,0,0,0,11.45,4.38.56.56,0,0,1,.4.3.51.51,0,0,1,0,.49c-3.8,5.51-7.76,11.62-10.66,16.08-1.25,1.93-2.28,3.52-3,4.58a35.67,35.67,0,0,0-3,7.33c-1.45,4.24-2.82,8.24-4.92,8.81A5.85,5.85,0,0,1,238.58,407.63Zm-21.39-17a2.85,2.85,0,0,0-1.34.23.28.28,0,0,0-.15.18c-.22,1.54,4.64,6.77,8,8.6a23,23,0,0,0,4.45,1.65c1.93.56,3.74,1.1,4.78,2.13,1.89,1.9,4.2,3.74,6.91,3,1.59-.44,3-4.55,4.23-8.18a36.51,36.51,0,0,1,3.17-7.56c.7-1.05,1.73-2.64,3-4.57,2.78-4.28,6.55-10.09,10.22-15.43a25.73,25.73,0,0,1-10.55-4.08,152,152,0,0,1-10.81,24c-.3.54-.53.95-.65,1.2-1.05,2-3.74,3.95-10.59,1.37C224.18,391.8,219.59,390.66,217.19,390.66Z" style="fill:#263238"></path><path d="M240,406.94c1.59-.43,2.82-3.44,4-6.85-6.26-.3-6.28-3.31-6.28-5.39a3.2,3.2,0,0,0-.69-1.9c-1.88,1.64-5.21,1.33-9-.09-4.56-1.71-12.53-3.7-12.81-1.71s5.12,7.4,8.25,9.11,7.4,2,9.11,3.7S236.84,407.79,240,406.94Z" style="fill:#4CAF50"></path><path d="M238.58,407.63c-2.51,0-4.6-1.71-6.36-3.47-.86-.85-2.55-1.35-4.35-1.88a24.75,24.75,0,0,1-4.65-1.73c-2.94-1.61-8.85-7.19-8.51-9.62a1.25,1.25,0,0,1,.63-.9c2.21-1.3,10.22,1.22,12.85,2.21,2.78,1,6.5,1.92,8.5.19a.44.44,0,0,1,.38-.12.51.51,0,0,1,.35.2,3.71,3.71,0,0,1,.78,2.19c0,2.05,0,4.61,5.8,4.89a.51.51,0,0,1,.39.22.51.51,0,0,1,.06.45c-1.46,4.18-2.64,6.7-4.35,7.16A5.85,5.85,0,0,1,238.58,407.63Zm-21.39-17a2.85,2.85,0,0,0-1.34.23.28.28,0,0,0-.15.18c-.22,1.54,4.64,6.77,8,8.6a23,23,0,0,0,4.45,1.65c1.93.56,3.74,1.1,4.78,2.13,1.89,1.9,4.2,3.74,6.91,3h0c1.39-.38,2.67-3.71,3.45-5.91-6.09-.52-6.09-3.84-6.09-5.85a2.46,2.46,0,0,0-.32-1.17c-1.92,1.26-5,1.15-9-.36C224.18,391.8,219.59,390.66,217.19,390.66Z" style="fill:#263238"></path><path d="M240,406.94a3,3,0,0,0,1.5-1.26c-4.82-1.22-5.79-3.16-8.33-4.43-2.85-1.43-6.26-1.14-10-4.56-2.48-2.29-5.21-4.95-6.74-6.47-.71.1-1.17.34-1.23.78-.29,2,5.12,7.4,8.25,9.11s7.4,2,9.11,3.7S236.84,407.79,240,406.94Z" style="fill:#263238"></path><path d="M238.58,407.63c-2.51,0-4.6-1.71-6.36-3.47-.86-.85-2.55-1.35-4.35-1.88a24.75,24.75,0,0,1-4.65-1.73c-2.94-1.61-8.85-7.19-8.51-9.62.07-.46.41-1,1.66-1.2l.24,0,.18.18c1.76,1.74,4.36,4.27,6.73,6.46a14.3,14.3,0,0,0,6.67,3.36,17,17,0,0,1,3.17,1.11,14.84,14.84,0,0,1,2.33,1.51,14.28,14.28,0,0,0,5.91,2.88l.71.18-.43.6a3.42,3.42,0,0,1-1.78,1.45A5.85,5.85,0,0,1,238.58,407.63Zm-22.31-16.87c-.34.07-.55.18-.57.31-.22,1.54,4.64,6.77,8,8.6a23,23,0,0,0,4.45,1.65c1.93.56,3.74,1.1,4.78,2.13,1.89,1.9,4.2,3.74,6.91,3h0a1.85,1.85,0,0,0,.75-.5,15.51,15.51,0,0,1-5.5-2.84,13.14,13.14,0,0,0-2.17-1.43,16.29,16.29,0,0,0-3-1,15.34,15.34,0,0,1-7.08-3.6C220.54,394.94,218,392.5,216.27,390.76Z" style="fill:#263238"></path><path d="M306.62,272.36c-.63-.88-1.22-1.67-1.75-2.33-3.42-4.27-4.27-3.7-4.27-6.26s4.84-30.17,3.13-40.13a23.63,23.63,0,0,0-5.64-12.38c-2.2,1.43-6.3,4.07-10.67,6.82-.55,1.75-1.83,3.76-4.47,6.13-5.41,4.83-10,11.95-8.54,16.5s4.84,14.52,6,22.77a61.89,61.89,0,0,1-.1,12.81A117.45,117.45,0,0,0,306.62,272.36Z" style="fill:#4CAF50"></path><path d="M280.29,276.79a.51.51,0,0,1-.37-.15.56.56,0,0,1-.13-.39,61.41,61.41,0,0,0,.1-12.7c-1-7.12-3.68-15.57-5.3-20.62-.25-.77-.47-1.47-.65-2.07-1.56-5,3.41-12.31,8.68-17a14,14,0,0,0,4.33-5.91.5.5,0,0,1,.21-.27c4.4-2.76,8.57-5.45,10.66-6.81a.51.51,0,0,1,.67.11l.28.36a24.12,24.12,0,0,1,5.45,12.24c1.29,7.52-1.1,24.9-2.38,34.23-.42,3-.74,5.38-.74,6,0,1.44.23,1.67,1.36,2.81a39.21,39.21,0,0,1,2.8,3.14c.56.7,1.17,1.51,1.77,2.35a.5.5,0,0,1-.28.77,117.94,117.94,0,0,1-26.45,4Zm7.55-58.39a15.13,15.13,0,0,1-4.56,6.18c-5.2,4.65-9.75,11.64-8.39,16l.65,2.06c1.63,5.08,4.35,13.58,5.34,20.8a60,60,0,0,1-.05,12.35,116.87,116.87,0,0,0,25-3.71c-.45-.61-.9-1.2-1.31-1.72a34.24,34.24,0,0,0-2.74-3c-1.16-1.19-1.64-1.67-1.64-3.52,0-.68.3-2.85.75-6.13,1.27-9.28,3.65-26.55,2.39-33.92A23,23,0,0,0,298,211.93h0C295.82,213.33,291.94,215.83,287.84,218.4Z" style="fill:#263238"></path><path d="M287.3,272.4a.5.5,0,0,1-.09-1c4.31-.79,12.3-5.56,12.38-5.6a.5.5,0,0,1,.51.85c-.33.2-8.22,4.92-12.71,5.73Z" style="fill:#263238"></path><path d="M288.92,268.35a.5.5,0,0,1-.09-1,37.49,37.49,0,0,0,8-2.39.5.5,0,0,1,.42.91,38.79,38.79,0,0,1-8.22,2.47Z" style="fill:#263238"></path><path d="M298.66,215.71s-7.75,2.21-12.54,11.81-.37,18.82,6.27,19.55,10.33-10,10.33-18.08S302,216.08,298.66,215.71Z" style="fill:#fff"></path><path d="M293,247.61a5.74,5.74,0,0,1-.71,0,9.36,9.36,0,0,1-7.09-5.13c-2.33-4.29-2.17-9.95.43-15.15,4.84-9.68,12.53-12,12.85-12.06a.68.68,0,0,1,.2,0c3.75.42,4.5,5.58,4.5,13.78,0,5.62-1.8,13.27-5.74,16.8A6.58,6.58,0,0,1,293,247.61Zm5.67-31.39c-.88.29-7.79,2.81-12.15,11.52-2.45,4.91-2.62,10.22-.44,14.22a8.39,8.39,0,0,0,6.32,4.62,5.51,5.51,0,0,0,4.37-1.54c3.55-3.18,5.41-10.48,5.41-16C302.22,221.64,301.62,216.65,298.71,216.22Z" style="fill:#263238"></path><path d="M290.81,224.9s-3.09,3.88-4.93,11.26S280.66,253,280.66,253s-10-4.43-18.45-7.38-16.6-10.33-16.6-10.33-1.11-6.65-3-6.65-8.68-.29-9.06,1.25.58,5.41,1,6.38,1.93,1.74,3.29,1.93a20.94,20.94,0,0,1,2.12.39,2.78,2.78,0,0,0,1.55,2.12,8.48,8.48,0,0,0,3.86,1s11,9.27,15.65,12.55,16.22,8.7,19.7,10.24,5.8,1.93,7.15.77,11.53-27.7,12.88-31.37,1.35-12.17-1.55-14.87" style="fill:#fff"></path><path d="M285.82,266.4a14,14,0,0,1-5.3-1.5c-3.67-1.63-15.18-7-19.79-10.29-4.32-3.06-14.27-11.39-15.55-12.47a8.74,8.74,0,0,1-3.94-1,3.66,3.66,0,0,1-1.72-2.14c-.34-.07-.94-.19-1.75-.3-1.47-.21-3.2-1-3.68-2.25-.34-.83-1.44-4.89-1-6.68.37-1.46,3.62-1.7,8.75-1.64h.8c2,0,3.1,5.06,3.42,6.89,1.06.94,8.59,7.43,16.3,10.11,7.34,2.56,15.88,6.25,18,7.18.72-2,3.44-9.95,5-16.25,1.85-7.4,4.9-11.29,5-11.45a.49.49,0,0,1,.7-.08.5.5,0,0,1,.08.7,31.58,31.58,0,0,0-4.84,11.07c-1.83,7.32-5.19,16.76-5.23,16.85a.53.53,0,0,1-.27.3.5.5,0,0,1-.4,0c-.1,0-10-4.45-18.41-7.36s-16.7-10.36-16.78-10.43a.56.56,0,0,1-.16-.29c-.5-3-1.61-6.23-2.46-6.23h-.81c-6.56-.09-7.68.52-7.77.89-.34,1.38.56,5.09,1,6.06.28.71,1.58,1.44,2.89,1.63s2.14.38,2.17.39a.51.51,0,0,1,.38.49s0,.91,1.31,1.7a8.17,8.17,0,0,0,3.6.89.47.47,0,0,1,.32.12c.11.09,11.05,9.29,15.62,12.52s16,8.58,19.61,10.19c3.47,1.55,5.51,1.81,6.62.85,1.22-1.18,10.51-25.1,12.74-31.16,1.34-3.65,1.24-11.86-1.42-14.34a.49.49,0,0,1,0-.7.5.5,0,0,1,.7,0c3.22,3,3,11.8,1.68,15.42-.11.29-11.4,30.18-13,31.57A3.44,3.44,0,0,1,285.82,266.4Z" style="fill:#263238"></path></g></svg>