<svg xmlns="http://www.w3.org/2000/svg" viewBox="0 0 500 500"><g id="freepik--background-complete--inject-3"><rect y="382.4" width="500" height="0.25" style="fill:#ebebeb"></rect><rect x="396.59" y="389.21" width="25.97" height="0.25" style="fill:#ebebeb"></rect><rect x="306.97" y="391.01" width="8.69" height="0.25" style="fill:#ebebeb"></rect><rect x="430.71" y="398.49" width="19.19" height="0.25" style="fill:#ebebeb"></rect><rect x="52.46" y="390.89" width="16.25" height="0.25" style="fill:#ebebeb"></rect><rect x="74.06" y="390.89" width="36.83" height="0.25" style="fill:#ebebeb"></rect><rect x="201.66" y="395.11" width="93.68" height="0.25" style="fill:#ebebeb"></rect><path d="M237,337.8H43.91a5.71,5.71,0,0,1-5.7-5.71V60.66A5.71,5.71,0,0,1,43.91,55H237a5.71,5.71,0,0,1,5.71,5.71V332.09A5.71,5.71,0,0,1,237,337.8ZM43.91,55.2a5.46,5.46,0,0,0-5.45,5.46V332.09a5.46,5.46,0,0,0,5.45,5.46H237a5.47,5.47,0,0,0,5.46-5.46V60.66A5.47,5.47,0,0,0,237,55.2Z" style="fill:#ebebeb"></path><path d="M453.31,337.8H260.21a5.72,5.72,0,0,1-5.71-5.71V60.66A5.72,5.72,0,0,1,260.21,55h193.1A5.71,5.71,0,0,1,459,60.66V332.09A5.71,5.71,0,0,1,453.31,337.8ZM260.21,55.2a5.47,5.47,0,0,0-5.46,5.46V332.09a5.47,5.47,0,0,0,5.46,5.46h193.1a5.47,5.47,0,0,0,5.46-5.46V60.66a5.47,5.47,0,0,0-5.46-5.46Z" style="fill:#ebebeb"></path><path d="M219.19,126.42c-1.56-3.43-4.68-6.08-7-5.92a2.18,2.18,0,0,0-1.85,1.23c-4.22-4.27-9.07-6.9-13.08-6.61a6.22,6.22,0,0,0-4.71,2.46c-4.53-6.45-10.29-11-14.48-11-2.38,0-3.86,1.48-4.38,4-4.64-4.34-9.41-7-13.26-7-6.14,0-8.13,6.76-5.62,16.26-1,1.79-5.84,4.29-5.64,7.29h70.27C219.37,126.85,219.28,126.64,219.19,126.42Z" style="fill:#fafafa"></path><path d="M332.48,85.47c-1.21-2.67-3.63-4.73-5.43-4.6a1.7,1.7,0,0,0-1.44.95c-3.27-3.32-7-5.36-10.15-5.13a4.84,4.84,0,0,0-3.67,1.91c-3.51-5-8-8.57-11.25-8.57-1.84,0-3,1.15-3.4,3.07-3.61-3.37-7.32-5.43-10.3-5.43-4.77,0-6.32,5.25-4.37,12.63-.78,1.39-4.54,3.33-4.38,5.66h54.6Z" style="fill:#fafafa"></path><path d="M121,100.1a1.72,1.72,0,0,0-1.48,1.26c-3.61-4.37-7.68-7.06-11-6.76a4.71,4.71,0,0,0-3.79,2.52h0c-3.91-6.59-8.8-11.26-12.24-11.26-2,0-3.12,1.51-3.47,4-4-4.43-8-7.15-11.12-7.15-3.92,0-5.65,4.18-5.11,10.61-1.89-1.87-3.74-3-5.25-3-2.1,0-3.08,2.11-2.91,5.43a2.41,2.41,0,0,0-.54,0c-3.2.55-4.42,4.83-2.89,9.72H126.7C125.26,102.36,122.79,99.94,121,100.1Z" style="fill:#fafafa"></path><path d="M391.46,172.73a2,2,0,0,0-1.71,1.44c-4.13-5-8.79-8.09-12.54-7.75a5.43,5.43,0,0,0-4.34,2.89h0c-4.48-7.55-10.08-12.9-14-12.9-2.24,0-3.58,1.73-4,4.62-4.53-5.08-9.11-8.19-12.74-8.19-4.49,0-6.47,4.79-5.85,12.15-2.16-2.14-4.29-3.4-6-3.4-2.4,0-3.52,2.42-3.33,6.22a4.21,4.21,0,0,0-.62.05c-3.66.64-5.06,5.54-3.3,11.15h75C396.34,175.31,393.51,172.55,391.46,172.73Z" style="fill:#fafafa"></path><path d="M101,135.33c-1.8.14-3.57.38-5.34.65s-3.51.62-5.23,1.05c-1.31.34-2.6.7-3.88,1.17a28.43,28.43,0,0,0-5.21-3,36.51,36.51,0,0,0-3.54-1.36,30.39,30.39,0,0,0-3.78-1l3,1.84c1,.61,1.93,1.21,2.85,1.83s1.81,1.25,2.68,1.88,1.65,1.29,2.4,1.95l.89.79,1.32-.52c1.39-.54,3-1,4.55-1.45s3.22-.88,4.86-1.31c3.27-.88,6.61-1.7,9.9-2.77A51.25,51.25,0,0,0,101,135.33Z" style="fill:#ebebeb"></path><path d="M153.68,147.57c-1.8.15-3.57.39-5.34.65s-3.51.63-5.23,1.06a38.39,38.39,0,0,0-3.88,1.17,28.43,28.43,0,0,0-5.21-3c-1.14-.5-2.32-1-3.54-1.37a30.38,30.38,0,0,0-3.78-1l3,1.83c1,.62,1.93,1.22,2.85,1.83s1.81,1.25,2.68,1.88,1.65,1.29,2.4,2l.89.79,1.32-.52c1.39-.55,3-1,4.55-1.46s3.22-.88,4.86-1.3c3.27-.89,6.61-1.71,9.9-2.77A54.07,54.07,0,0,0,153.68,147.57Z" style="fill:#ebebeb"></path><path d="M411.8,140.78c-2.1.17-4.18.45-6.25.76s-4.11.73-6.13,1.24a46.16,46.16,0,0,0-4.53,1.37,33.31,33.31,0,0,0-6.1-3.48c-1.35-.59-2.72-1.13-4.15-1.6a36.59,36.59,0,0,0-4.44-1.19l3.47,2.15c1.13.72,2.25,1.42,3.33,2.15s2.12,1.46,3.14,2.19,1.93,1.52,2.81,2.3l1,.92,1.55-.61c1.62-.64,3.47-1.18,5.32-1.71s3.78-1,5.7-1.52c3.83-1,7.74-2,11.6-3.24A60.91,60.91,0,0,0,411.8,140.78Z" style="fill:#ebebeb"></path><path d="M331.53,122.54c-2.1.17-4.18.45-6.25.76s-4.11.73-6.13,1.24a45.29,45.29,0,0,0-4.53,1.36,34,34,0,0,0-6.11-3.47,42,42,0,0,0-4.15-1.6,35.94,35.94,0,0,0-4.43-1.19l3.47,2.15c1.13.72,2.25,1.42,3.33,2.14s2.12,1.47,3.14,2.2,1.93,1.52,2.81,2.29l1,.93,1.55-.61c1.62-.64,3.47-1.18,5.32-1.71s3.77-1,5.7-1.52c3.83-1,7.73-2,11.59-3.25C335.74,122.23,333.63,122.36,331.53,122.54Z" style="fill:#ebebeb"></path><path d="M391.41,117.05c-1.28.1-2.54.27-3.8.46s-2.5.44-3.73.75c-.93.24-1.85.5-2.75.83a21.25,21.25,0,0,0-3.71-2.11,25.46,25.46,0,0,0-2.53-1,22.57,22.57,0,0,0-2.69-.73l2.11,1.31c.68.44,1.37.87,2,1.31s1.29.89,1.91,1.33,1.17.92,1.71,1.4l.63.56.95-.37c1-.39,2.1-.72,3.23-1s2.29-.63,3.46-.93c2.33-.63,4.71-1.21,7-2A38,38,0,0,0,391.41,117.05Z" style="fill:#ebebeb"></path><path d="M283,107.61c-1.27.11-2.53.28-3.79.47s-2.5.44-3.73.75c-.93.24-1.85.5-2.76.83a20.89,20.89,0,0,0-3.71-2.11,25.28,25.28,0,0,0-2.52-1,23.1,23.1,0,0,0-2.69-.73l2.1,1.31c.69.44,1.37.86,2,1.3s1.29.89,1.91,1.34,1.17.92,1.7,1.39l.64.57.94-.37c1-.39,2.11-.72,3.24-1s2.29-.63,3.46-.93c2.33-.63,4.7-1.21,7.05-2C285.57,107.43,284.29,107.51,283,107.61Z" style="fill:#ebebeb"></path><path d="M435.7,112.38c-.9.08-1.78.19-2.66.33s-1.75.31-2.61.53a17.2,17.2,0,0,0-1.94.58,14.28,14.28,0,0,0-2.6-1.48c-.57-.25-1.15-.49-1.76-.69a16.37,16.37,0,0,0-1.89-.5l1.48.91c.48.31,1,.61,1.42.92s.9.62,1.33.93.82.65,1.2,1l.44.39.66-.26c.69-.27,1.48-.5,2.27-.72s1.61-.44,2.43-.65c1.63-.44,3.29-.85,4.94-1.38A26.92,26.92,0,0,0,435.7,112.38Z" style="fill:#ebebeb"></path><path d="M364.89,85.9c-.9.08-1.78.2-2.66.33s-1.75.31-2.61.53a19.56,19.56,0,0,0-1.94.58,14.53,14.53,0,0,0-2.59-1.48c-.58-.25-1.16-.48-1.77-.68a16.39,16.39,0,0,0-1.89-.51l1.48.92c.48.3,1,.6,1.42.91s.9.62,1.33.94.82.64,1.2,1l.44.4.66-.26c.69-.27,1.48-.51,2.27-.73s1.61-.44,2.43-.65c1.63-.44,3.29-.85,4.94-1.38A26.92,26.92,0,0,0,364.89,85.9Z" style="fill:#ebebeb"></path><rect x="224.48" y="366.99" width="19.82" height="15.41" style="fill:#e6e6e6"></rect><path d="M235.4,258.24,297,373a1.15,1.15,0,0,1-1.32,1.65l-13-3.69a1.14,1.14,0,0,0-1.46,1.1v5a1.15,1.15,0,0,1-1.87.9l-12.27-9.77a1.14,1.14,0,0,0-1.51.07l-6.05,5.75a1.15,1.15,0,0,1-1.3.2l-13.58-6.74a1.14,1.14,0,0,0-1.4.31l-7.22,9.05a1.15,1.15,0,0,1-1.73.08l-8.58-9a1.16,1.16,0,0,0-1.64,0l-8.6,8.6a1.16,1.16,0,0,1-1.52.1l-10.86-8.49a1.14,1.14,0,0,0-1.36,0L193.48,374a1.15,1.15,0,0,1-1.81-.86l-.45-6.74a1.14,1.14,0,0,0-1.67-.94l-15.72,8.23a1.15,1.15,0,0,1-1.55-1.55l61.1-113.9A1.15,1.15,0,0,1,235.4,258.24Z" style="fill:#f0f0f0"></path><path d="M233.29,261.9l-42.91,69.87c-.55.89.37,1.93,1.47,1.65l7.55-1.88a1.27,1.27,0,0,1,1.63,1.11v1.71a1.31,1.31,0,0,0,2.08.9l7.69-5.34a1.4,1.4,0,0,1,1.67.07l3.79,3.15a1.41,1.41,0,0,0,1.44.19l9.07-3.93a1.39,1.39,0,0,1,1.56.3l4.58,5a1.39,1.39,0,0,0,1.92.08l5.43-5a1.41,1.41,0,0,1,1.82,0l5.52,4.82a1.4,1.4,0,0,0,1.68.09l7.15-4.88a1.4,1.4,0,0,1,1.51,0l5,3.06a1.3,1.3,0,0,0,2-.86l.22-2.81a1.29,1.29,0,0,1,1.87-.94l9.2,4.21c1.13.51,2.33-.58,1.72-1.57l-42.37-69A1.37,1.37,0,0,0,233.29,261.9Z" style="fill:#e6e6e6"></path><path d="M233.25,249.92,205.9,300.19c-.5.91.48,1.89,1.56,1.59l3.39-.95a1.27,1.27,0,0,1,1.69,1.09h0a1.32,1.32,0,0,0,2.16.86l3.87-3a1.41,1.41,0,0,1,1.8.07l1.88,1.76a1.43,1.43,0,0,0,1.57.22l5.18-2.54a1.41,1.41,0,0,1,1.68.34l2.38,2.95a1.41,1.41,0,0,0,2.05.08l2.76-2.86a1.43,1.43,0,0,1,2,0l2.89,2.86a1.42,1.42,0,0,0,1.82.1l4-3.07a1.43,1.43,0,0,1,1.66,0l2.18,1.51a1.32,1.32,0,0,0,2.09-.83l.06-.8a1.31,1.31,0,0,1,1.95-.92l4.13,2.13c1.1.57,2.37-.47,1.82-1.49l-26.82-49.28A1.38,1.38,0,0,0,233.25,249.92Z" style="fill:#f0f0f0"></path><path d="M422.13,381.43c-.82-5.23-4.47-9.28-8.18-9a5,5,0,0,0-3.5,1.87c-4.6-6.51-11-10.52-17.41-10.08a13.93,13.93,0,0,0-8.58,3.76c-4.06-9.84-11-16.82-17.53-16.82-3.74,0-6.76,2.26-8.76,6-5.25-6.6-11.48-10.66-17.53-10.66-9.64,0-16,10.31-16.51,24.79-2.43,2.73-11.21,6.54-12.32,11.11H422.25Z" style="fill:#f0f0f0"></path><path d="M156.25,373.6a4.24,4.24,0,0,0-3.09,2c-3.79-7-9.18-11.33-14.74-10.86a11.42,11.42,0,0,0-7.53,4.05s0,0,0,0c-3.2-10.58-9-18.08-14.65-18.08-3.24,0-5.92,2.43-7.75,6.48-4.34-7.12-9.61-11.49-14.84-11.49-6.49,0-11.43,6.71-13.74,17-2.2-3-4.71-4.78-7.21-4.78-3.47,0-6.14,3.4-7.51,8.72a5.84,5.84,0,0,0-.93.08c-5.56.89-9.72,7.76-9.61,15.62h108.3C162.17,377.22,159.29,373.34,156.25,373.6Z" style="fill:#e6e6e6"></path><polygon points="139.78 340.31 140.04 324.28 145.52 302.68 140.39 302.68 140.78 278.43 124.83 278.43 123.27 322.16 119.41 323.13 121.39 346.31 122.4 346.39 121.11 382.4 139.1 382.4 139.38 365.18 141.61 340.01 139.78 340.31" style="fill:#f0f0f0"></polygon><path d="M83.28,277.91C73.83,273.66,70,262.2,80.36,253s-6.33-12.11,7-29.78,31.42-5.16,35.78-20.91,20.94-21.85,29.45-3.09,8.07,2.62,18.76,21-16.8,26.17-3.27,34.46,29.39,22.73,15.45,31c-21,12.44-3.2,9.71-15,22.91-13.58,15.11-19.2-8.07-42.74,2.62s-41.2,4.16-33-14.18C99.17,282.73,93.34,282.43,83.28,277.91Z" style="fill:#e6e6e6"></path><polygon points="386.19 347.9 385.9 334.76 379.82 317.06 385.51 317.06 385.08 297.19 402.77 297.19 404.5 333.03 408.77 333.82 406.58 352.82 405.46 352.89 406.89 382.4 386.94 382.4 386.63 368.29 384.15 347.66 386.19 347.9" style="fill:#fafafa"></polygon><path d="M441.2,317.49c9-3.72,12.69-13.74,2.8-21.75s6.05-10.59-6.68-26-30-4.52-34.21-18.28-20-19.11-28.16-2.7S367.23,251,357,267s16.06,22.89,3.13,30.14S332,317,345.36,324.26c20.08,10.87,3.06,8.49,14.39,20,13,13.21,18.36-7.06,40.87,2.29s39.4,3.64,31.52-12.4C426,321.7,431.58,321.44,441.2,317.49Z" style="fill:#f0f0f0"></path></g><g id="freepik--Shadow--inject-3"><ellipse id="freepik--path--inject-3" cx="250" cy="416.24" rx="193.89" ry="11.32" style="fill:#f5f5f5"></ellipse></g><g id="freepik--Character--inject-3"><path d="M235.17,182.31c-1.44,5.49-3,10.91-4.73,16.32q-1.26,4.06-2.66,8.11c-.92,2.7-1.89,5.39-3,8.14l-.27.67c-.12.3-.25.56-.38.83a16.33,16.33,0,0,1-.86,1.45,16.52,16.52,0,0,1-1.87,2.29,29.53,29.53,0,0,1-3.89,3.31,54.69,54.69,0,0,1-7.93,4.62,95.66,95.66,0,0,1-16.42,6.07l-2.11-5.5c2.37-1.31,4.83-2.65,7.18-4.06s4.7-2.81,6.92-4.31a55.53,55.53,0,0,0,6.17-4.65,18.43,18.43,0,0,0,2.32-2.41,8.31,8.31,0,0,0,.7-1.06,2.26,2.26,0,0,0,.17-.38.63.63,0,0,0,0-.14l0-.08.07-.24c1.56-5.16,3-10.62,4.49-16s3-10.8,4.56-16.16Z" style="fill:#ffb573"></path><path d="M237.78,176.48c3.46,7-7.61,29.87-7.61,29.87L216,200.73a81,81,0,0,1,4-20.39C223.59,170.38,233.94,168.73,237.78,176.48Z" style="fill:#4CAF50"></path><path d="M238.13,177.37c-3.35-1.12-6.75.57-9.59,7S224,201.08,224.12,204l6,2.39S240.52,185.14,238.13,177.37Z" style="opacity:0.2"></path><path d="M192.45,228.27l-5.5.13a5,5,0,0,0-4.84,5.44h0a5,5,0,0,0,7.86,3.59,24.33,24.33,0,0,0,4.31-3.8Z" style="fill:#ffb573"></path><path d="M191.41,228.26a26.53,26.53,0,0,1,2.5,5.68.53.53,0,0,0,.58.36,13.12,13.12,0,0,0,4.86-1.65.48.48,0,0,0,.15-.48c-.49-2.11-2.55-6.59-3.71-6.61-.95,0-3.26,1.38-4.23,2A.49.49,0,0,0,191.41,228.26Z" style="fill:#263238"></path><path d="M227.51,172.12s-6.57,25.56,8,69.9l43.22-5.25c-.51-6.67-8.61-38.53-6-70.56a113,113,0,0,0-14.69-.07,159.48,159.48,0,0,0-18.37,2.23A81.75,81.75,0,0,0,227.51,172.12Z" style="fill:#4CAF50"></path><path d="M246.86,190.18h0a.12.12,0,0,1-.09-.15c1.27-4.53-.75-6.65-3.82-9.88a43.53,43.53,0,0,1-7.4-9.78c-5.06-9.35-.13-13.09,3.13-15.56a15.43,15.43,0,0,0,1.79-1.49.12.12,0,1,1,.18.17,15.59,15.59,0,0,1-1.81,1.52c-3.2,2.42-8,6.08-3.07,15.24A43,43,0,0,0,243.1,180c3.13,3.28,5.19,5.45,3.88,10.11A.13.13,0,0,1,246.86,190.18Z" style="fill:#fff"></path><path d="M253.71,145.67c-.44,6.05-.28,17,4.33,20.47a56.85,56.85,0,0,0-14.43,12.06c-2.15-3.43-3.89-6.78-3.94-9.83,6.4-2.38,5.64-7.25,3.93-11.7Z" style="fill:#ffb573"></path><path d="M249.59,150.16l-6,6.5a20.16,20.16,0,0,1,1,3.2c2.47-.67,5.6-3.86,5.54-6.53A8.71,8.71,0,0,0,249.59,150.16Z" style="opacity:0.2"></path><path d="M232.28,127.44c-5.76,3.31-1.63,16.81,1.25,17.85C238.93,147.23,239.43,123.34,232.28,127.44Z" style="fill:#263238"></path><path d="M253.33,136.69c.48,8.06,1.17,12.76-2.37,17.36-5.33,6.92-15.66,4.45-18.54-3.31-2.59-7-2.94-19,4.51-23.13A11,11,0,0,1,253.33,136.69Z" style="fill:#ffb573"></path><path d="M259.06,129.61c.77,4.68-3,17.87-6.42,18s-5.27-7.08-4.38-13.88c-3.23-.55-22.94,2-20.44-6.39,2.31-7.74,13.84-4.11,21.71-9.21.6,3.07-2.82,5.84-1.12,5.34,7-2.07,9.9,2.34,14.79.11A8.71,8.71,0,0,1,259.06,129.61Z" style="fill:#263238"></path><path d="M258,145.07a7.7,7.7,0,0,1-4.34,4c-2.54.89-4-1.34-3.43-3.83.51-2.24,2.44-5.41,5.06-5.22S259.06,142.81,258,145.07Z" style="fill:#ffb573"></path><path d="M235.52,242s-15.39,51.09-17.2,75.86c-1.88,25.77-8.15,90.92-8.15,90.92l6.32,1.9s21.47-60,22.31-85.34c.55-16.59,30.27-87.41,30.27-87.41Z" style="fill:#ffb573"></path><path d="M209.59,403.46l8.32,3.8a.7.7,0,0,1,.4.79l-1.54,7.25a1.2,1.2,0,0,1-1.69.82c-2.88-1.37-4.21-2.19-7.87-3.86-2.25-1-10.27-4.4-13.38-5.82s-2.11-4.67-.71-4.37c6.28,1.35,12.48,2.11,15.06,1.3A2,2,0,0,1,209.59,403.46Z" style="fill:#263238"></path><path d="M205.24,401.67a1.3,1.3,0,0,1,.08-.17.65.65,0,0,1,.56-.38c1-.05,2.64,2.34,3,2.82a.23.23,0,0,1,0,.25.21.21,0,0,1-.23.1c-1-.2-2.87-.69-3.34-1.67A1.16,1.16,0,0,1,205.24,401.67Zm2.88,2.05c-.73-1-1.74-2.16-2.22-2.14-.05,0-.11,0-.17.13a.78.78,0,0,0-.06.72A3.81,3.81,0,0,0,208.12,403.72Z" style="fill:#4CAF50"></path><path d="M207.58,400.51l.09-.17a.69.69,0,0,1,.81-.22,1.11,1.11,0,0,1,.67.59c.54,1.11-.26,3.34-.29,3.43a.21.21,0,0,1-.18.15.23.23,0,0,1-.22-.09C207.92,403.48,207.23,401.41,207.58,400.51Zm1,3a4.55,4.55,0,0,0,.16-2.61.67.67,0,0,0-.39-.35c-.22-.07-.28,0-.3.05C207.76,401,208.11,402.59,208.58,403.52Z" style="fill:#4CAF50"></path><path d="M235.52,242s-6.4,20-8.39,29.28c4.06.35,23.12,6.17,26.93,8.5,2.33-4.23,13.64-41.69,13.64-41.69Z" style="fill:#263238"></path><path d="M255.53,251.83c-1.18,4.47-2.73,15.49.61,22.66,1.49-4.23,3.44-10.27,5.33-16.21C259.53,254.26,256.39,248.56,255.53,251.83Z" style="opacity:0.2"></path><path d="M227,268.21a12.41,12.41,0,0,0-1,4.26c3.12.6,23.53,6.93,27.28,8.92,1.82-1.34,2.09-4.23,2.19-4.19S238.52,269.8,227,268.21Z" style="fill:#4CAF50"></path><path d="M227,268.21a12.41,12.41,0,0,0-1,4.26c3.12.6,23.53,6.93,27.28,8.92,1.82-1.34,2.09-4.23,2.19-4.19S238.52,269.8,227,268.21Z" style="fill:#fff;opacity:0.2"></path><path d="M247.41,240.58S271.82,306.2,284,327.52c12.92,22.7,66.8-19.17,66.8-19.17l-4.84-5.07S314.35,317,301.86,316c-12.28-23-23.12-79.24-23.12-79.24Z" style="fill:#ffb573"></path><path d="M246.62,240.67s11.47,29.57,14.3,38.6c3.71-1.7,23.63-6,28.09-5.87-.06-4.84-10.27-36.63-10.27-36.63Z" style="fill:#263238"></path><path d="M269.55,240.72a.14.14,0,0,1-.12-.09c-2.69-8.7-8.64-15.31-13.89-21.14-6.37-7.08-11.87-13.19-11-21.38.63-6.18,3-9.82,5.11-13,3-4.58,5.36-8.2.74-17.07-6.94-13.3.56-19.77,3.38-22.2a11.52,11.52,0,0,0,.86-.79.12.12,0,0,1,.17,0,.13.13,0,0,1,0,.18c-.18.2-.49.47-.89.82-2.78,2.39-10.16,8.77-3.32,21.9,4.68,9,2.28,12.67-.75,17.32-2.09,3.19-4.45,6.8-5.08,12.91-.83,8.08,4.64,14.16,11,21.19,5.26,5.85,11.23,12.48,13.94,21.24a.12.12,0,0,1-.08.15Z" style="fill:#fff"></path><path d="M256.24,145.11a1.22,1.22,0,1,1-2.12-1.11,1.37,1.37,0,0,1,1.76-.76A1.36,1.36,0,0,1,256.24,145.11Z" style="fill:#fff"></path><path d="M267.4,239.72h8.09a.64.64,0,0,1,.64.64v3.73a0,0,0,0,1,0,0h-9.37a0,0,0,0,1,0,0v-3.73A.64.64,0,0,1,267.4,239.72Z" transform="translate(-38.33 51.53) rotate(-10.13)" style="fill:#fff"></path><path d="M259.68,276.43a12.3,12.3,0,0,0,1.23,4.19c3-1,23.9-5.57,28.14-5.69.93-2.06-.26-4.71-.16-4.72S270.44,272.16,259.68,276.43Z" style="fill:#4CAF50"></path><path d="M259.68,276.43a12.3,12.3,0,0,0,1.23,4.19c3-1,23.9-5.57,28.14-5.69.93-2.06-.26-4.71-.16-4.72S270.44,272.16,259.68,276.43Z" style="fill:#fff;opacity:0.2"></path><path d="M351.32,310.15l-7-5.89a.73.73,0,0,1-.17-.88l3.43-6.57a1.2,1.2,0,0,1,1.85-.33c2.4,2.09,3.47,3.24,6.54,5.83,1.9,1.59,8.71,7,11.32,9.2s.78,5.07-.49,4.4c-5.68-3-11.45-5.38-14.15-5.29A2,2,0,0,1,351.32,310.15Z" style="fill:#263238"></path><path d="M355,313l-.12.14a.67.67,0,0,1-.64.22c-1-.23-1.91-3-2.09-3.51a.23.23,0,0,1,.07-.25.23.23,0,0,1,.25,0c1,.48,2.58,1.44,2.77,2.5A1.15,1.15,0,0,1,355,313Zm-2.22-2.75c.43,1.18,1.1,2.55,1.56,2.66a.22.22,0,0,0,.21-.08.78.78,0,0,0,.24-.68C354.71,311.64,354,311,352.8,310.29Z" style="fill:#4CAF50"></path><path d="M352.45,313.52a.44.44,0,0,1-.13.14.66.66,0,0,1-.84,0,1.09,1.09,0,0,1-.48-.74c-.23-1.22,1.14-3.15,1.2-3.24a.23.23,0,0,1,.22-.09.24.24,0,0,1,.18.14C352.93,310.58,353,312.76,352.45,313.52Zm-.15-3.16a4.54,4.54,0,0,0-.85,2.47.65.65,0,0,0,.28.44c.19.13.27.07.3,0C352.42,313,352.5,311.38,352.3,310.36Z" style="fill:#4CAF50"></path><path d="M241.46,140.4c.08.65-.2,1.22-.62,1.27s-.84-.43-.92-1.08.2-1.23.63-1.28S241.38,139.75,241.46,140.4Z" style="fill:#263238"></path><path d="M234.1,141.29c.08.66-.21,1.23-.63,1.28s-.84-.44-.92-1.09.21-1.22.63-1.27S234,140.64,234.1,141.29Z" style="fill:#263238"></path><path d="M236.48,141.33a23.73,23.73,0,0,1-2.44,6,3.81,3.81,0,0,0,3.19.2Z" style="fill:#ed893e"></path><path d="M239.32,149.06a.19.19,0,0,1-.19-.17.19.19,0,0,1,.17-.21,5.19,5.19,0,0,0,4-2.53.19.19,0,0,1,.26-.09.21.21,0,0,1,.09.26,5.5,5.5,0,0,1-4.27,2.74Z" style="fill:#263238"></path><path d="M243.35,137.76a.39.39,0,0,1-.28-.12,3.07,3.07,0,0,0-2.61-1,.39.39,0,0,1-.14-.76,3.86,3.86,0,0,1,3.31,1.2.4.4,0,0,1,0,.55A.43.43,0,0,1,243.35,137.76Z" style="fill:#263238"></path><path d="M230.52,139.16l-.13,0a.39.39,0,0,1-.24-.49,3.84,3.84,0,0,1,2.49-2.49.38.38,0,0,1,.47.28.39.39,0,0,1-.28.47,3,3,0,0,0-2,2A.38.38,0,0,1,230.52,139.16Z" style="fill:#263238"></path><path d="M279.4,171.86c2.44,4.8,4.58,9.55,6.58,14.51,1,2.48,1.94,5,2.78,7.57a70.46,70.46,0,0,1,2.25,8.12c.14.73.27,1.49.38,2.28a24.18,24.18,0,0,1,.2,2.67,9.25,9.25,0,0,1-1.1,4.42,9.45,9.45,0,0,1-2.66,3.06,14.74,14.74,0,0,1-5.22,2.42,27.92,27.92,0,0,1-4.56.75,57.68,57.68,0,0,1-16.49-1.3l.53-5.86,3.73-.32c1.25-.12,2.49-.27,3.72-.41a61.42,61.42,0,0,0,7.07-1.25,20.11,20.11,0,0,0,3-1,4.38,4.38,0,0,0,1.69-1c.07-.11,0-.1-.18.1a1.73,1.73,0,0,0-.26.67c0,.05,0,0,0-.07l0-.14,0-.29-.13-.69c-.12-.49-.24-1-.39-1.53-.61-2.13-1.42-4.44-2.33-6.72s-1.87-4.6-2.89-6.9c-2-4.6-4.17-9.27-6.29-13.78Z" style="fill:#ffb573"></path><path d="M265,211.93l-3.37-4.34a5,5,0,0,0-7.25-.66h0a5,5,0,0,0,1.79,8.45,25,25,0,0,0,5.61,1.21Z" style="fill:#ffb573"></path><path d="M272.73,166.21c12.44,1.72,16.33,23,16.33,23l-13.84,7.22a68.6,68.6,0,0,1-11.16-15.23C259.15,171.93,264.46,165.06,272.73,166.21Z" style="fill:#4CAF50"></path></g></svg>